# Blender v3.5.0 OBJ File: ''
# www.blender.org
mtllib hammer.mtl
o Cube.002
v -0.132321 5.525292 0.132321
v -0.129450 5.615088 -0.187578
v -0.132321 5.525292 -0.132321
v 0.132321 5.525292 0.132321
v -0.080615 5.324767 0.080615
v 0.080615 5.324767 0.080615
v -0.080615 5.324767 -0.080615
v 0.075792 1.889260 -0.075792
v -0.075792 1.889260 0.075792
v -0.075792 1.889260 -0.075792
v 0.132321 5.525292 -0.132321
v 0.080615 5.324767 -0.080615
v -0.129450 5.615088 0.187578
v -0.129450 5.986741 -0.187578
v 0.129450 5.615088 0.187578
v 0.129450 5.615088 -0.187578
v 0.129450 5.615088 0.187578
v 0.129450 5.615088 -0.187578
v 0.129450 6.055898 -0.050137
v 0.129450 5.986741 -0.187578
v 0.129450 5.986741 0.187578
v -0.129450 6.055898 -0.050137
v 0.129450 6.055898 0.050137
v -0.129450 5.986741 0.187578
v -0.129450 6.055898 0.050137
v 0.129450 5.728603 0.265220
v -0.129450 5.853814 0.265220
v -0.129450 5.728603 0.265220
v 0.129450 5.853814 0.265220
v -0.129450 5.728603 -0.265220
v 0.129450 5.853814 -0.265220
v 0.129450 5.728603 -0.265220
v -0.129450 5.853814 -0.265220
v 0.080615 2.174913 -0.080615
v -0.080615 2.174913 -0.080615
v 0.080615 2.174913 0.080615
v -0.080615 2.174913 0.080615
v -0.158265 2.069115 0.140202
v 0.158265 2.069115 0.140202
v -0.158265 2.069115 -0.140202
v 0.158265 2.069115 -0.140202
v 0.156746 1.979187 -0.138684
v -0.156746 1.979187 -0.138684
v 0.156746 1.979187 0.138684
v -0.156746 1.979187 0.138684
v 0.075792 1.889260 0.075792
v -0.090798 6.122438 0.608476
v -0.090798 6.774035 0.398705
v -0.090798 6.122438 0.181231
v 0.090798 6.122438 0.181231
v 0.090798 6.122438 0.608476
v 0.090798 6.641821 0.794085
v 0.090798 6.122438 1.128726
v -0.090798 6.122438 1.128726
v 0.090798 3.239405 0.608476
v -0.090798 3.239405 0.801347
v -0.090798 3.239405 0.608476
v -0.090798 6.728415 0.599817
v 0.090798 6.728415 0.599817
v 0.090798 4.871247 1.222432
v -0.090798 4.055326 1.065769
v 0.090798 4.055326 1.065769
v 0.090798 4.871247 0.608476
v 0.090798 4.055326 0.608476
v -0.090798 4.871247 0.181231
v 0.090798 4.055326 0.420161
v -0.090798 4.055326 0.420161
v -0.090798 4.871247 0.608476
v -0.090798 4.055326 0.608476
v -0.090798 4.871247 1.222432
v 0.090798 4.871247 0.181231
v -0.090798 3.647365 0.608476
v -0.090798 3.647365 0.326952
v 0.090798 3.647365 0.326952
v 0.090798 3.647365 0.933558
v 0.090798 3.647365 0.608476
v -0.090798 3.647365 0.933558
v 0.090798 6.774035 0.398705
v 0.090798 3.310050 0.392105
v -0.090798 3.310050 0.392105
v -0.090798 6.641821 0.794085
v 0.090798 3.239405 0.801347
v -0.090798 6.122438 -0.608476
v -0.090798 6.774035 -0.398706
v -0.090798 6.122438 -0.181231
v 0.090798 6.122438 -0.181231
v 0.090798 6.122438 -0.608476
v 0.090798 6.641821 -0.794086
v 0.090798 6.122438 -1.128727
v -0.090798 6.122438 -1.128727
v 0.090798 3.239405 -0.608476
v -0.090798 3.239405 -0.801347
v -0.090798 3.239405 -0.608476
v -0.090798 6.728415 -0.599819
v 0.090798 6.728415 -0.599819
v 0.090798 4.871247 -1.222432
v -0.090798 4.055326 -1.065769
v 0.090798 4.055326 -1.065769
v 0.090798 4.871247 -0.608476
v 0.090798 4.055326 -0.608476
v -0.090798 4.871247 -0.181231
v 0.090798 4.055326 -0.420161
v -0.090798 4.055326 -0.420161
v -0.090798 4.871247 -0.608476
v -0.090798 4.055326 -0.608476
v -0.090798 4.871247 -1.222432
v 0.090798 4.871247 -0.181231
v -0.090798 3.647365 -0.608476
v -0.090798 3.647365 -0.326952
v 0.090798 3.647365 -0.326952
v 0.090798 3.647365 -0.933558
v 0.090798 3.647365 -0.608476
v -0.090798 3.647365 -0.933558
v 0.090798 6.774035 -0.398706
v 0.090798 3.310050 -0.392105
v -0.090798 3.310050 -0.392105
v -0.090798 6.641821 -0.794086
v 0.090798 3.239405 -0.801347
v 0.129450 5.615088 -0.187578
v 0.129450 5.615088 0.187578
vt 0.740607 0.459304
vt 0.702067 0.470118
vt 0.708724 0.459304
vt 0.056226 0.922845
vt 0.030573 0.897997
vt 0.049997 0.897997
vt 0.714953 0.435094
vt 0.734377 0.435094
vt 0.579527 0.598741
vt 0.561304 0.580479
vt 0.579527 0.580479
vt 0.846947 0.459304
vt 0.821294 0.435094
vt 0.840718 0.435094
vt 0.940403 0.459142
vt 0.914750 0.435064
vt 0.934174 0.435064
vt 0.747263 0.470118
vt 0.702067 0.514891
vt 0.808408 0.470118
vt 0.815065 0.459304
vt 0.908867 0.469875
vt 0.908521 0.459142
vt 0.024690 0.934597
vt 0.024344 0.922845
vt 0.496990 0.580543
vt 0.496990 0.580543
vt 0.496990 0.580543
vt 0.496990 0.580543
vt 0.359048 0.534612
vt 0.390238 0.518473
vt 0.390238 0.534612
vt 0.853604 0.470118
vt 0.808408 0.514891
vt 0.359048 0.518473
vt 0.390238 0.506406
vt 0.853604 0.514891
vt 0.824966 0.523222
vt 0.747263 0.514891
vt 0.718625 0.523222
vt 0.390238 0.489468
vt 0.359048 0.506406
vt 0.359048 0.489468
vt 0.055880 0.949605
vt 0.024690 0.964491
vt 0.024690 0.949605
vt 0.055880 0.934597
vt 0.799055 0.498877
vt 0.055880 0.978781
vt 0.024690 0.978781
vt 0.756617 0.498877
vt 0.940057 0.483432
vt 0.908867 0.498516
vt 0.908867 0.483432
vt 0.940057 0.469875
vt 0.692714 0.498877
vt 0.940057 0.514646
vt 0.908867 0.514646
vt 0.862958 0.498877
vt 0.914750 0.055622
vt 0.934174 0.055622
vt 0.821294 0.055636
vt 0.840718 0.055636
vt 0.714954 0.055636
vt 0.734377 0.055636
vt 0.030573 0.523522
vt 0.049997 0.523522
vt 0.021219 0.512105
vt 0.059352 0.512105
vt 0.707775 0.042969
vt 0.741556 0.042969
vt 0.814116 0.042969
vt 0.847897 0.042969
vt 0.905395 0.042787
vt 0.943529 0.042787
vt 0.905578 0.031956
vt 0.943346 0.031956
vt 0.814299 0.032134
vt 0.847714 0.032134
vt 0.707958 0.032134
vt 0.741373 0.032134
vt 0.021402 0.501385
vt 0.059169 0.501385
vt 0.031154 0.489468
vt 0.049416 0.489468
vt 0.715535 0.021219
vt 0.733796 0.021219
vt 0.821876 0.021219
vt 0.840137 0.021219
vt 0.915331 0.021219
vt 0.933593 0.021219
vt 0.430931 0.099715
vt 0.456203 0.021219
vt 0.482403 0.099715
vt 0.123666 0.906761
vt 0.101789 0.827939
vt 0.123666 0.827939
vt 0.576311 0.099715
vt 0.598672 0.037146
vt 0.638987 0.099715
vt 0.316610 0.893828
vt 0.294733 0.838601
vt 0.316610 0.838601
vt 0.518867 0.514921
vt 0.496990 0.538106
vt 0.496990 0.514921
vt 0.359048 0.600926
vt 0.380925 0.577049
vt 0.380925 0.600926
vt 0.316610 0.691677
vt 0.294733 0.591622
vt 0.316610 0.591622
vt 0.576311 0.250445
vt 0.631403 0.348738
vt 0.576311 0.348738
vt 0.123666 0.677216
vt 0.101789 0.579289
vt 0.123666 0.579289
vt 0.430931 0.250445
vt 0.453618 0.348738
vt 0.430931 0.348738
vt 0.294733 0.691677
vt 0.650276 0.250445
vt 0.101789 0.677216
vt 0.482403 0.250445
vt 0.430931 0.397884
vt 0.464847 0.397884
vt 0.101789 0.530003
vt 0.123666 0.530003
vt 0.615475 0.397884
vt 0.576311 0.397884
vt 0.294733 0.540545
vt 0.316610 0.540545
vt 0.553624 0.348738
vt 0.542395 0.397884
vt 0.391768 0.397884
vt 0.368255 0.099715
vt 0.356966 0.250445
vt 0.524840 0.099715
vt 0.524840 0.250445
vt 0.375840 0.348738
vt 0.359048 0.625390
vt 0.380925 0.625390
vt 0.518867 0.489468
vt 0.496990 0.489468
vt 0.551040 0.021219
vt 0.408570 0.037146
vt 0.407695 0.447031
vt 0.430931 0.447031
vt 0.550244 0.438520
vt 0.576311 0.447031
vt 0.294733 0.489468
vt 0.316610 0.489468
vt 0.599547 0.447031
vt 0.101789 0.489468
vt 0.123666 0.489468
vt 0.456998 0.438520
vt 0.263057 0.099715
vt 0.314529 0.099715
vt 0.288329 0.021219
vt 0.187981 0.906741
vt 0.187981 0.828577
vt 0.166104 0.828577
vt 0.072690 0.099715
vt 0.135366 0.099715
vt 0.095051 0.037146
vt 0.252296 0.894111
vt 0.252296 0.825842
vt 0.230418 0.825842
vt 0.454553 0.515097
vt 0.432675 0.515097
vt 0.432675 0.538306
vt 0.561304 0.513505
vt 0.583182 0.513505
vt 0.583182 0.489468
vt 0.252296 0.675267
vt 0.252296 0.581317
vt 0.230418 0.581317
vt 0.072690 0.250445
vt 0.072690 0.348738
vt 0.127781 0.348738
vt 0.187981 0.677854
vt 0.187981 0.579204
vt 0.166104 0.579204
vt 0.263057 0.250445
vt 0.263057 0.348738
vt 0.285744 0.348738
vt 0.230418 0.675267
vt 0.146655 0.250445
vt 0.166104 0.677854
vt 0.314529 0.250445
vt 0.263057 0.397884
vt 0.296973 0.397884
vt 0.187981 0.530201
vt 0.166104 0.530201
vt 0.072690 0.397884
vt 0.111854 0.397884
vt 0.252296 0.535393
vt 0.230418 0.535393
vt 0.050003 0.348738
vt 0.038774 0.397884
vt 0.223894 0.397884
vt 0.200381 0.099715
vt 0.189092 0.250445
vt 0.021219 0.099715
vt 0.021219 0.250445
vt 0.207966 0.348738
vt 0.561304 0.538042
vt 0.583182 0.538042
vt 0.454553 0.489468
vt 0.432675 0.489468
vt 0.047419 0.021219
vt 0.240697 0.037146
vt 0.239822 0.447031
vt 0.263057 0.447031
vt 0.046623 0.438520
vt 0.072690 0.447031
vt 0.252296 0.489468
vt 0.230418 0.489468
vt 0.095926 0.447031
vt 0.187981 0.489468
vt 0.166104 0.489468
vt 0.289124 0.438520
vt 0.561304 0.598741
vt 0.496990 0.580543
vt 0.496990 0.580543
vt 0.837047 0.523222
vt 0.730706 0.523222
vt 0.055880 0.964491
vt 0.799055 0.483793
vt 0.756617 0.483793
vt 0.940057 0.498516
vt 0.692714 0.483793
vt 0.862958 0.483793
vt 0.431974 0.026714
vt 0.101789 0.906761
vt 0.575268 0.026714
vt 0.294733 0.893828
vt 0.518867 0.538106
vt 0.359048 0.577049
vt 0.264100 0.026714
vt 0.166104 0.906741
vt 0.071647 0.026714
vt 0.230418 0.894111
vt 0.454553 0.538306
vt 0.561304 0.489468
vn -0.7554 -0.3113 0.5765
vn -0.7115 -0.3774 -0.5928
vn -0.7554 -0.3113 -0.5765
vn 0.7554 -0.3113 0.5765
vn -0.6943 -0.1891 0.6944
vn 0.6943 -0.1891 0.6944
vn -0.7555 -0.3113 0.5765
vn -0.6944 -0.1891 -0.6943
vn -0.6944 -0.1891 0.6943
vn 0.3157 -0.8718 -0.3747
vn -0.3157 -0.8718 0.3747
vn -0.3157 -0.8718 -0.3747
vn 0.7555 -0.3113 -0.5765
vn 0.6944 -0.1891 0.6943
vn 0.6944 -0.1891 -0.6943
vn 0.6943 -0.1891 -0.6944
vn -0.6943 -0.1891 -0.6944
vn -0.7115 -0.3774 0.5928
vn -0.6484 0.5549 -0.5212
vn 0.7554 -0.3113 -0.5765
vn 0.7115 -0.3774 0.5928
vn -0.7554 -0.3114 -0.5765
vn 0.7115 -0.3774 -0.5928
vn 0.7554 -0.3114 -0.5765
vn 0.7554 -0.3114 0.5765
vn -0.7554 -0.3114 0.5765
vn 0.0000 0.0000 0.0000
vn 0.6586 0.7321 -0.1738
vn 0.6484 0.5549 -0.5212
vn 0.6484 0.5549 0.5212
vn -0.6586 0.7321 -0.1738
vn 0.6586 0.7321 0.1738
vn 0.6484 0.5548 -0.5213
vn 0.6586 0.7321 0.1739
vn -0.6484 0.5548 0.5213
vn -0.6586 0.7321 -0.1739
vn -0.6586 0.7321 0.1738
vn -0.6484 0.5549 0.5212
vn 0.6463 -0.2255 0.7290
vn -0.6528 0.1979 0.7313
vn -0.6463 -0.2255 0.7290
vn 0.6463 -0.2254 0.7291
vn 0.6528 0.1979 0.7313
vn -0.6528 0.1980 0.7312
vn 0.6484 0.5548 0.5212
vn -0.6484 0.5548 0.5212
vn -0.6463 -0.2255 -0.7290
vn 0.6528 0.1979 -0.7313
vn 0.6463 -0.2255 -0.7290
vn -0.6463 -0.2254 -0.7291
vn -0.6528 0.1979 -0.7313
vn 0.6528 0.1980 -0.7312
vn -0.6484 0.5548 -0.5212
vn 0.6484 0.5548 -0.5212
vn -0.6944 -0.1892 -0.6943
vn 0.6133 0.4303 -0.6624
vn -0.6133 0.4303 -0.6624
vn 0.6943 -0.1892 -0.6944
vn 0.6133 0.4303 0.6623
vn 0.6133 0.4303 -0.6623
vn -0.6943 -0.1892 0.6944
vn -0.6133 0.4303 -0.6623
vn -0.6133 0.4303 0.6623
vn 0.6944 -0.1892 0.6943
vn -0.6133 0.4303 0.6624
vn 0.6133 0.4303 0.6624
vn -0.6799 0.3065 0.6662
vn 0.6799 0.3065 0.6662
vn -0.6799 0.3064 -0.6662
vn -0.6799 0.3064 0.6662
vn 0.6799 0.3064 0.6662
vn 0.6799 0.3064 -0.6662
vn 0.6799 0.3065 -0.6662
vn -0.6799 0.3065 -0.6662
vn 0.6644 -0.3655 -0.6519
vn -0.6644 -0.3655 -0.6519
vn 0.6644 -0.3656 0.6519
vn 0.6644 -0.3656 -0.6519
vn -0.6644 -0.3656 -0.6519
vn -0.6644 -0.3656 0.6519
vn -0.6644 -0.3655 0.6519
vn 0.6644 -0.3655 0.6519
vn 0.6643 -0.3655 0.6520
vn -0.3158 -0.8717 0.3747
vn 0.3158 -0.8717 0.3747
vn -0.6643 -0.3656 0.6519
vn -0.3157 -0.8718 -0.3746
vn -0.3157 -0.8718 0.3746
vn 0.6643 -0.3656 -0.6519
vn 0.3157 -0.8718 0.3746
vn 0.3157 -0.8718 -0.3746
vn -0.6643 -0.3655 -0.6520
vn 0.3158 -0.8717 -0.3747
vn -0.3158 -0.8717 -0.3747
vn -1.0000 0.0000 0.0000
vn -0.5827 0.7081 -0.3988
vn -0.6727 0.1186 -0.7303
vn -0.5827 0.7081 -0.3987
vn 0.6727 0.1187 -0.7303
vn -0.6727 0.1187 -0.7303
vn 1.0000 -0.0000 0.0000
vn 0.6481 0.5781 0.4957
vn 0.6557 0.2400 0.7159
vn -0.6556 0.2401 0.7159
vn 0.6556 0.2401 0.7159
vn 0.6734 -0.7301 -0.1162
vn -0.5956 -0.6497 0.4724
vn -0.6734 -0.7301 -0.1162
vn -0.6857 0.6906 0.2298
vn 0.6857 0.6906 0.2298
vn 0.6786 -0.0422 0.7333
vn -0.6935 -0.1793 0.6978
vn 0.6935 -0.1793 0.6978
vn 0.6935 -0.1794 0.6978
vn -0.6765 -0.1046 -0.7290
vn 0.7685 -0.0193 -0.6396
vn -0.7685 -0.0193 -0.6396
vn -0.6786 -0.0422 0.7333
vn 0.6765 -0.1045 -0.7290
vn -0.6765 -0.1045 -0.7290
vn -0.6635 0.0126 -0.7481
vn 0.6635 0.0126 -0.7481
vn 0.7071 -0.2180 0.6727
vn -0.7071 -0.2180 0.6727
vn 0.7685 -0.0192 -0.6396
vn 0.6635 0.0127 -0.7481
vn -0.6557 0.2401 0.7159
vn 0.5827 0.7081 -0.3987
vn 0.6088 -0.5249 -0.5949
vn -0.6088 -0.5249 -0.5949
vn 0.5827 0.7082 -0.3987
vn -0.6481 0.5780 0.4958
vn -0.5956 -0.6497 0.4723
vn 0.6734 -0.7301 -0.1161
vn 0.5956 -0.6497 0.4724
vn 0.5956 -0.6496 0.4724
vn -0.6635 0.0127 -0.7481
vn -0.6088 -0.5250 -0.5948
vn -0.6727 0.1187 0.7303
vn -0.5827 0.7082 0.3987
vn -0.5827 0.7081 0.3987
vn 0.6727 0.1187 0.7303
vn 0.6557 0.2401 -0.7159
vn 0.6481 0.5780 -0.4958
vn 0.6481 0.5781 -0.4957
vn 0.6556 0.2401 -0.7159
vn -0.6556 0.2401 -0.7159
vn 0.6734 -0.7301 0.1162
vn -0.6734 -0.7301 0.1162
vn -0.5956 -0.6497 -0.4724
vn -0.6857 0.6906 -0.2298
vn 0.6857 0.6906 -0.2298
vn 0.6786 -0.0422 -0.7333
vn 0.6935 -0.1793 -0.6978
vn -0.6935 -0.1793 -0.6978
vn -0.6765 -0.1046 0.7290
vn -0.7685 -0.0193 0.6396
vn 0.7685 -0.0193 0.6396
vn -0.7685 -0.0192 0.6396
vn -0.6786 -0.0422 -0.7333
vn -0.6727 0.1186 0.7303
vn -0.6765 -0.1045 0.7290
vn 0.6765 -0.1045 0.7290
vn -0.6635 0.0127 0.7481
vn -0.6635 0.0126 0.7481
vn 0.6635 0.0126 0.7481
vn 0.7071 -0.2180 -0.6727
vn 0.6935 -0.1794 -0.6978
vn -0.7071 -0.2180 -0.6727
vn 0.7685 -0.0192 0.6396
vn -0.6557 0.2400 -0.7159
vn 0.6727 0.1186 0.7303
vn 0.6765 -0.1046 0.7290
vn -0.6935 -0.1794 -0.6978
vn 0.5827 0.7081 0.3987
vn 0.6088 -0.5249 0.5949
vn -0.6088 -0.5249 0.5949
vn 0.5827 0.7081 0.3988
vn -0.6481 0.5781 -0.4957
vn -0.5956 -0.6496 -0.4724
vn -0.6734 -0.7301 0.1161
vn 0.6088 -0.5250 0.5948
vn 0.5956 -0.6497 -0.4724
vn 0.5956 -0.6497 -0.4723
vn -0.7555 -0.3113 -0.5765
vn 0.3157 -0.8718 0.3747
vn 0.7555 -0.3113 0.5765
vn -0.6463 -0.2254 0.7291
vn 0.6528 0.1980 0.7312
vn 0.6463 -0.2254 -0.7291
vn -0.6528 0.1980 -0.7312
vn 0.6944 -0.1892 -0.6943
vn 0.6943 -0.1892 0.6944
vn -0.6943 -0.1892 -0.6944
vn -0.6944 -0.1892 0.6943
vn -0.6643 -0.3655 0.6520
vn -0.6643 -0.3656 -0.6519
vn 0.6643 -0.3656 0.6519
vn 0.6643 -0.3655 -0.6520
vn -0.6857 0.6907 0.2298
vn 0.6857 0.6907 0.2298
vn -0.6481 0.5781 0.4957
vn 0.6765 -0.1046 -0.7290
vn 0.6727 0.1186 -0.7303
vn -0.6935 -0.1794 0.6978
vn -0.6857 0.6907 -0.2298
vn 0.6857 0.6907 -0.2298
vn 0.6635 0.0127 0.7481
usemtl Material.002
s 1
f 1/1/1 2/2/2 3/3/3
f 4/4/4 5/5/5 6/6/6
f 1/1/7 7/7/8 5/8/9
f 8/9/10 9/10/11 10/11/12
f 11/12/13 6/13/14 12/14/15
f 3/15/3 12/16/16 7/17/17
f 13/18/18 14/19/19 2/2/2
f 11/12/20 15/20/21 4/21/4
f 3/15/22 16/22/23 11/23/24
f 4/4/25 13/24/18 1/25/26
f 16/26/27 17/27/27 15/28/27
f 15/28/27 18/29/27 16/26/27
f 14/30/19 19/31/28 20/32/29
f 16/33/23 21/34/30 15/20/21
f 22/35/31 23/36/32 19/31/28
f 20/37/33 23/38/34 21/34/30
f 24/39/35 22/40/36 14/19/19
f 21/41/30 25/42/37 24/43/38
f 26/44/39 27/45/40 28/46/41
f 26/44/42 13/24/18 15/47/21
f 29/48/43 15/20/21 21/34/30
f 27/45/44 21/49/45 24/50/46
f 13/18/18 27/51/44 24/39/35
f 30/52/47 31/53/48 32/54/49
f 30/52/50 16/22/23 2/55/2
f 33/56/51 2/2/2 14/19/19
f 31/53/52 14/57/53 20/58/54
f 16/33/23 31/59/52 20/37/33
f 7/17/55 34/60/56 35/61/57
f 12/14/58 36/62/59 34/63/60
f 5/8/61 35/64/62 37/65/63
f 6/6/64 37/66/65 36/67/66
f 36/67/59 38/68/67 39/69/68
f 37/65/63 40/70/69 38/71/70
f 34/63/60 39/72/71 41/73/72
f 35/61/62 41/74/73 40/75/74
f 40/75/74 42/76/75 43/77/76
f 41/73/73 44/78/77 42/79/78
f 38/71/67 43/80/79 45/81/80
f 39/69/68 45/82/81 44/83/82
f 44/83/83 9/84/84 46/85/85
f 45/81/86 10/86/87 9/87/88
f 42/79/89 46/88/90 8/89/91
f 43/77/92 8/90/93 10/91/94
f 47/92/95 48/93/96 49/94/97
f 48/95/98 50/96/99 49/97/100
f 51/98/101 52/99/102 53/100/103
f 52/101/102 54/102/104 53/103/105
f 55/104/106 56/105/107 57/106/108
f 58/107/109 52/108/102 59/109/110
f 60/110/111 61/111/112 62/112/113
f 63/113/101 62/114/114 64/115/101
f 65/116/115 66/117/116 67/118/117
f 68/119/95 67/120/117 69/121/95
f 53/103/105 70/122/118 60/110/111
f 63/113/101 53/100/103 60/123/111
f 49/97/97 71/124/119 65/116/120
f 47/92/95 65/125/115 68/119/95
f 72/126/95 67/120/117 73/127/121
f 67/118/117 74/128/122 73/129/121
f 64/115/101 75/130/123 76/131/101
f 62/112/114 77/132/124 75/133/123
f 66/134/125 76/131/101 74/135/126
f 77/136/124 69/121/95 72/126/95
f 54/137/127 68/119/95 70/138/118
f 50/139/99 63/113/101 71/140/119
f 61/141/112 68/119/95 69/121/95
f 66/134/125 63/113/101 64/115/101
f 48/142/98 59/109/110 78/143/128
f 79/144/129 57/106/108 80/145/130
f 78/146/131 51/98/101 50/139/99
f 81/147/132 47/92/95 54/137/127
f 56/148/133 72/126/95 57/149/108
f 79/150/129 76/131/101 55/151/134
f 75/133/123 56/152/107 82/153/135
f 76/131/101 82/154/136 55/151/134
f 73/129/137 79/155/129 80/156/130
f 72/126/95 80/157/138 57/149/108
f 83/158/95 85/159/139 84/160/140
f 84/161/141 85/162/139 86/163/142
f 87/164/101 89/165/143 88/166/144
f 88/167/145 89/168/146 90/169/147
f 91/170/148 93/171/149 92/172/150
f 94/173/151 95/174/152 88/175/145
f 96/176/153 98/177/154 97/178/155
f 99/179/101 100/180/101 98/181/154
f 101/182/156 103/183/157 102/184/158
f 104/185/95 105/186/95 103/187/159
f 89/168/146 96/176/153 106/188/160
f 99/179/101 96/189/153 89/165/143
f 85/162/161 101/182/162 107/190/163
f 83/158/95 104/185/95 101/191/162
f 108/192/95 109/193/164 103/187/159
f 103/183/157 109/194/165 110/195/166
f 100/180/101 112/196/101 111/197/167
f 98/177/168 111/198/167 113/199/169
f 102/200/170 110/201/166 112/196/101
f 113/202/169 108/192/95 105/186/95
f 90/203/171 106/204/160 104/185/95
f 86/205/172 107/206/173 99/179/101
f 97/207/174 105/186/95 104/185/95
f 102/200/170 100/180/101 99/179/101
f 84/208/141 114/209/175 95/174/152
f 115/210/176 116/211/177 93/171/149
f 114/212/178 86/205/172 87/164/101
f 117/213/179 90/203/171 83/158/95
f 92/214/180 93/215/181 108/192/95
f 115/216/182 91/217/148 112/196/101
f 111/198/167 118/218/183 92/219/150
f 112/196/101 91/217/148 118/220/184
f 109/194/164 116/221/177 115/222/176
f 108/192/95 93/215/181 116/223/177
f 1/1/1 13/18/18 2/2/2
f 4/4/4 1/25/1 5/5/5
f 1/1/7 3/3/185 7/7/8
f 8/9/10 46/224/186 9/10/11
f 11/12/13 4/21/187 6/13/14
f 3/15/3 11/23/20 12/16/16
f 13/18/18 24/39/35 14/19/19
f 11/12/20 16/33/23 15/20/21
f 3/15/22 2/55/2 16/22/23
f 4/4/25 15/47/21 13/24/18
f 16/26/27 119/225/27 17/27/27
f 15/28/27 120/226/27 18/29/27
f 14/30/19 22/35/31 19/31/28
f 16/33/23 20/37/33 21/34/30
f 22/35/31 25/42/37 23/36/32
f 20/37/33 19/227/28 23/38/34
f 24/39/35 25/228/37 22/40/36
f 21/41/30 23/36/32 25/42/37
f 26/44/39 29/229/43 27/45/40
f 26/44/42 28/46/188 13/24/18
f 29/48/43 26/230/39 15/20/21
f 27/45/44 29/229/189 21/49/45
f 13/18/18 28/231/188 27/51/44
f 30/52/47 33/232/51 31/53/48
f 30/52/50 32/54/190 16/22/23
f 33/56/51 30/233/47 2/2/2
f 31/53/52 33/232/191 14/57/53
f 16/33/23 32/234/190 31/59/52
f 7/17/55 12/16/192 34/60/56
f 12/14/58 6/13/193 36/62/59
f 5/8/61 7/7/194 35/64/62
f 6/6/64 5/5/195 37/66/65
f 36/67/59 37/66/63 38/68/67
f 37/65/63 35/64/62 40/70/69
f 34/63/60 36/62/59 39/72/71
f 35/61/62 34/60/60 41/74/73
f 40/75/74 41/74/73 42/76/75
f 41/73/73 39/72/68 44/78/77
f 38/71/67 40/70/74 43/80/79
f 39/69/68 38/68/67 45/82/81
f 44/83/83 45/82/196 9/84/84
f 45/81/86 43/80/197 10/86/87
f 42/79/89 44/78/198 46/88/90
f 43/77/92 42/76/199 8/90/93
f 47/92/95 58/235/200 48/93/96
f 48/95/98 78/236/128 50/96/99
f 51/98/101 59/237/201 52/99/102
f 52/101/102 81/238/202 54/102/104
f 55/104/106 82/239/135 56/105/107
f 58/107/109 81/240/202 52/108/102
f 60/110/111 70/122/118 61/111/112
f 63/113/101 60/123/111 62/114/114
f 65/116/115 71/124/203 66/117/116
f 68/119/95 65/125/115 67/120/117
f 53/103/105 54/102/104 70/122/118
f 63/113/101 51/98/101 53/100/103
f 49/97/97 50/96/204 71/124/119
f 47/92/95 49/94/97 65/125/115
f 72/126/95 69/121/95 67/120/117
f 67/118/117 66/117/116 74/128/122
f 64/115/101 62/114/114 75/130/123
f 62/112/114 61/111/205 77/132/124
f 66/134/125 64/115/101 76/131/101
f 77/136/124 61/141/112 69/121/95
f 54/137/127 47/92/95 68/119/95
f 50/139/99 51/98/101 63/113/101
f 61/141/112 70/138/118 68/119/95
f 66/134/125 71/140/119 63/113/101
f 48/142/98 58/107/109 59/109/110
f 79/144/129 55/104/106 57/106/108
f 78/146/131 59/237/201 51/98/101
f 81/147/132 58/235/200 47/92/95
f 56/148/133 77/136/124 72/126/95
f 79/150/129 74/135/126 76/131/101
f 75/133/123 77/132/124 56/152/107
f 76/131/101 75/130/123 82/154/136
f 73/129/137 74/128/126 79/155/129
f 72/126/95 73/127/121 80/157/138
f 83/158/95 84/160/140 94/241/206
f 84/161/141 86/163/142 114/242/175
f 87/164/101 88/166/144 95/243/207
f 88/167/145 90/169/147 117/244/179
f 91/170/148 92/172/150 118/245/183
f 94/173/151 88/175/145 117/246/179
f 96/176/153 97/178/155 106/188/160
f 99/179/101 98/181/154 96/189/153
f 101/182/156 102/184/158 107/190/173
f 104/185/95 103/187/159 101/191/162
f 89/168/146 106/188/160 90/169/147
f 99/179/101 89/165/143 87/164/101
f 85/162/161 107/190/163 86/163/172
f 83/158/95 101/191/162 85/159/139
f 108/192/95 103/187/159 105/186/95
f 103/183/157 110/195/166 102/184/158
f 100/180/101 111/197/167 98/181/154
f 98/177/168 113/199/169 97/178/174
f 102/200/170 112/196/101 100/180/101
f 113/202/169 105/186/95 97/207/174
f 90/203/171 104/185/95 83/158/95
f 86/205/172 99/179/101 87/164/101
f 97/207/174 104/185/95 106/204/160
f 102/200/170 99/179/101 107/206/173
f 84/208/141 95/174/152 94/173/151
f 115/210/176 93/171/149 91/170/148
f 114/212/178 87/164/101 95/243/207
f 117/213/179 83/158/95 94/241/206
f 92/214/180 108/192/95 113/202/169
f 115/216/182 112/196/101 110/201/166
f 111/198/167 92/219/150 113/199/169
f 112/196/101 118/220/184 111/197/167
f 109/194/164 115/222/176 110/195/208
f 108/192/95 116/223/177 109/193/164
