# Blender v3.5.0 OBJ File: ''
# www.blender.org
mtllib float_R_arm.mtl
o 立方体.002
v -0.390970 -0.646684 -0.184062
v -0.494341 -0.790906 0.247740
v -0.494341 -0.790906 -0.184062
v -0.501137 -0.567722 0.247740
v -0.714675 -0.632982 0.247740
v -0.604508 -0.711944 0.247740
v -0.611304 -0.488760 0.247740
v -0.714675 -0.632982 -0.184062
v -0.501137 -0.567722 -0.184062
v -0.604508 -0.711944 -0.184062
v -0.816566 -0.775138 0.247740
v -0.707880 -0.856166 -0.184062
v -0.707880 -0.856166 0.247740
v -0.390970 -0.646684 0.247740
v -0.317766 -0.694739 -0.217355
v -0.317766 -0.694739 0.307794
v -0.582107 -0.913355 -0.184062
v -0.816566 -0.775138 -0.184062
v -0.582107 -0.913355 0.247740
v -0.677387 -0.436980 -0.217355
v -0.611304 -0.488760 -0.184062
v -0.390970 -0.646684 0.344172
v -0.494341 -0.790906 0.344172
v -0.501137 -0.567722 0.344172
v -0.604508 -0.711944 0.344172
v -0.438196 -0.479907 0.307794
v -0.499047 -0.564806 0.307794
v -0.616536 -0.352082 0.307794
v -0.677387 -0.436980 0.307794
v -0.499047 -0.564806 -0.217355
v -0.256915 -0.609841 0.307794
v -0.438196 -0.479907 -0.217355
v -0.616536 -0.352082 -0.217355
v -0.256915 -0.609841 -0.217355
vt 0.868998 0.717914
vt 0.916713 0.601800
vt 0.916713 0.717914
vt 0.403548 0.855303
vt 0.439996 0.903018
vt 0.403548 0.903018
vt 0.963744 0.834028
vt 0.916029 0.950142
vt 0.916029 0.834028
vt 0.330652 0.950733
vt 0.294204 0.903018
vt 0.330652 0.903018
vt 0.952294 0.000015
vt 0.915866 0.116107
vt 0.915866 0.000000
vt 0.142499 0.838616
vt 0.118957 0.963681
vt 0.118957 0.822473
vt 0.294204 0.862507
vt 0.330652 0.855303
vt 0.868998 0.950142
vt 0.868998 0.834028
vt 0.439996 0.950050
vt 0.403548 0.950733
vt 0.957224 0.601800
vt 0.957224 0.717914
vt 0.367100 0.943530
vt 0.367100 0.855987
vt 0.215381 0.838631
vt 0.237913 0.963705
vt 0.215381 0.954738
vt 0.879285 0.116176
vt 0.879285 0.000069
vt 0.367100 0.950733
vt 0.367100 0.903018
vt 0.664147 0.904599
vt 0.638216 0.868151
vt 0.664147 0.868151
vt 0.915733 0.386109
vt 0.879285 0.433824
vt 0.879285 0.386109
vt 0.868998 0.601800
vt 0.916713 0.575869
vt 0.612284 0.868151
vt 0.638216 0.915866
vt 0.612284 0.915866
vt 0.716008 0.904592
vt 0.690078 0.868156
vt 0.716008 0.868151
vt 0.262338 0.815907
vt 0.290426 0.875882
vt 0.262338 0.875882
vt 0.290426 0.934885
vt 0.262338 0.934885
vt 0.142499 0.954723
vt 0.178921 0.963693
vt 0.178921 0.822485
vt 0.237913 0.822497
vt 0.178940 0.954730
vt 0.178940 0.838623
vt 0.237958 0.681257
vt 0.177982 0.822473
vt 0.177982 0.681257
vt 0.118979 0.822473
vt 0.118979 0.681257
vt 0.575381 0.888605
vt 0.547293 0.747390
vt 0.575381 0.747390
vt 0.575381 0.747390
vt 0.547293 0.606174
vt 0.575381 0.606174
vt 0.946246 0.294158
vt 0.974335 0.235155
vt 0.974334 0.294158
vt 0.946246 0.354134
vt 0.974335 0.354134
vt 0.439996 0.855303
vt 0.963744 0.950142
vt 0.294204 0.950733
vt 0.952294 0.116122
vt 0.367100 0.903018
vt 0.638216 0.904599
vt 0.915733 0.433824
vt 0.868998 0.575869
vt 0.638216 0.868151
vt 0.690078 0.904598
vt 0.290426 0.815907
vt 0.237958 0.822473
vt 0.547293 0.888605
vt 0.547293 0.747390
vt 0.946246 0.235155
vn -0.2621 -0.8987 -0.3517
vn 0.5595 -0.7720 0.3015
vn 0.5747 -0.4120 -0.7071
vn -0.7734 -0.1262 0.6213
vn -0.5747 0.4119 0.7071
vn -0.4207 -0.0694 0.9045
vn -0.7755 -0.5407 0.3261
vn -0.5747 0.4120 -0.7071
vn -0.3893 -0.5431 -0.7440
vn 0.5748 -0.4119 -0.7071
vn 0.0000 -0.0000 -1.0000
vn -0.8061 -0.1252 0.5783
vn -0.3712 -0.6282 -0.6838
vn -0.3712 -0.6282 0.6838
vn 0.1776 -0.9835 0.0336
vn 0.1452 -0.8009 -0.5809
vn 0.1426 -0.8011 0.5813
vn 0.2087 -0.7813 -0.5883
vn -0.3711 -0.6282 -0.6838
vn -0.8061 -0.1253 -0.5783
vn -0.8061 -0.1253 0.5783
vn -0.3712 -0.6281 0.6838
vn 0.2087 -0.7812 0.5883
vn 0.2087 -0.7812 -0.5883
vn 0.2088 -0.7812 0.5883
vn -0.8061 -0.1252 -0.5783
vn -0.7755 -0.5407 0.3260
vn -0.8050 -0.1194 -0.5811
vn -0.7674 -0.5364 -0.3513
vn -0.7674 -0.5363 -0.3513
vn -0.7733 -0.1262 0.6213
vn 0.8056 0.1329 0.5773
vn 0.1330 -0.8056 0.5774
vn -0.1329 0.8056 0.5774
vn -0.8056 -0.1329 0.5774
vn 0.1329 -0.8056 0.5774
vn -0.8056 -0.1329 0.5773
vn 0.1427 -0.8011 0.5813
vn 0.4120 0.5747 0.7071
vn -0.3995 -0.5573 0.7279
vn -0.1330 0.8056 0.5774
vn -0.8044 -0.1220 0.5815
vn -0.2621 -0.8987 -0.3516
vn -0.3893 -0.5430 -0.7440
vn 0.1452 -0.8010 -0.5808
vn -0.8043 -0.1220 0.5815
vn -0.3892 -0.5431 -0.7440
vn 0.8056 0.1329 0.5774
vn 0.4120 0.5747 -0.7071
vn 0.4119 0.5748 0.7071
vn -0.1329 0.8056 -0.5774
vn -0.8044 -0.1220 0.5814
vn 0.1452 -0.8010 -0.5809
vn 0.4119 0.5748 -0.7071
vn 0.1451 -0.8010 -0.5809
vn 0.8056 0.1329 -0.5774
vn -0.7755 -0.5406 0.3260
vn -0.3712 -0.6281 -0.6838
vn 0.8056 0.1330 0.5774
vn 0.8056 0.1330 0.5773
vn -0.8056 -0.1330 0.5773
vn -0.8051 -0.1194 -0.5811
vn 0.8056 0.1329 -0.5773
usemtl Default_OBJ.001
s 1
f 1/1/1 2/2/2 3/3/3
f 4/4/4 5/5/5 6/6/6
f 7/7/7 8/8/8 5/9/5
f 9/10/9 3/11/10 10/12/11
f 11/13/12 12/14/13 13/15/14
f 14/16/15 15/17/16 16/18/17
f 10/12/11 17/19/18 12/20/19
f 5/9/5 18/21/20 11/22/21
f 6/6/6 11/23/21 13/24/22
f 3/3/3 19/25/23 17/26/24
f 19/27/25 6/6/6 13/24/22
f 18/28/26 10/12/11 12/20/19
f 7/29/27 20/30/28 21/31/29
f 13/15/22 17/32/24 19/33/23
f 21/34/30 10/12/11 8/35/8
f 4/36/31 22/37/32 14/38/15
f 23/39/33 24/40/34 25/41/35
f 14/42/15 23/43/36 2/2/2
f 6/44/6 24/45/34 4/46/4
f 2/47/2 25/48/37 6/49/6
f 16/50/38 26/51/39 27/52/40
f 27/52/40 28/53/41 29/54/42
f 1/55/43 30/56/44 15/17/45
f 7/29/27 27/57/40 29/58/46
f 21/31/29 30/56/44 9/59/47
f 14/16/15 27/57/40 4/60/4
f 31/61/48 32/62/49 26/63/50
f 26/63/50 33/64/51 28/65/34
f 29/66/52 33/67/51 20/68/28
f 15/69/53 31/70/48 16/71/38
f 30/72/47 33/73/51 32/74/54
f 15/75/55 32/74/54 34/76/56
f 1/1/1 14/42/15 2/2/2
f 4/4/4 7/77/57 5/5/5
f 7/7/7 21/78/30 8/8/8
f 9/10/9 1/79/43 3/11/10
f 11/13/12 18/80/26 12/14/13
f 14/16/15 1/55/43 15/17/16
f 10/12/11 3/11/10 17/19/18
f 5/9/5 8/8/8 18/21/20
f 6/6/6 5/5/5 11/23/21
f 3/3/3 2/2/2 19/25/23
f 19/27/25 2/81/2 6/6/6
f 18/28/26 8/35/8 10/12/11
f 7/29/27 29/58/42 20/30/28
f 13/15/22 12/14/58 17/32/24
f 21/34/30 9/10/9 10/12/11
f 4/36/31 24/82/34 22/37/32
f 23/39/33 22/83/59 24/40/34
f 14/42/15 22/84/60 23/43/36
f 6/44/6 25/85/61 24/45/34
f 2/47/2 23/86/36 25/48/37
f 16/50/38 31/87/59 26/51/39
f 27/52/40 26/51/39 28/53/41
f 1/55/43 9/59/47 30/56/44
f 7/29/27 4/60/4 27/57/40
f 21/31/29 20/30/62 30/56/44
f 14/16/15 16/18/38 27/57/40
f 31/61/48 34/88/56 32/62/49
f 26/63/50 32/62/49 33/64/51
f 29/66/52 28/89/34 33/67/51
f 15/69/53 34/90/63 31/70/48
f 30/72/47 20/91/62 33/73/51
f 15/75/55 30/72/47 32/74/54
