# Blender v3.5.0 OBJ File: ''
# www.blender.org
mtllib float_L_arm.mtl
o 立方体.001
v 0.390970 -0.646684 -0.184062
v 0.494341 -0.790906 0.247740
v 0.494341 -0.790906 -0.184062
v 0.501137 -0.567722 0.247740
v 0.714675 -0.632982 0.247740
v 0.604508 -0.711944 0.247740
v 0.611304 -0.488760 0.247740
v 0.714675 -0.632982 -0.184062
v 0.501137 -0.567722 -0.184062
v 0.604508 -0.711944 -0.184062
v 0.816566 -0.775138 0.247740
v 0.707880 -0.856166 -0.184062
v 0.707880 -0.856166 0.247740
v 0.390970 -0.646684 0.247740
v 0.317766 -0.694739 -0.217355
v 0.317766 -0.694739 0.307794
v 0.582107 -0.913355 -0.184062
v 0.816566 -0.775138 -0.184062
v 0.582107 -0.913355 0.247740
v 0.677387 -0.436980 -0.217355
v 0.611304 -0.488760 -0.184062
v 0.390970 -0.646684 0.344172
v 0.494341 -0.790906 0.344172
v 0.501137 -0.567722 0.344172
v 0.604508 -0.711944 0.344172
v 0.438196 -0.479907 0.307794
v 0.499047 -0.564806 0.307794
v 0.616536 -0.352082 0.307794
v 0.677387 -0.436980 0.307794
v 0.499047 -0.564806 -0.217355
v 0.256915 -0.609841 0.307794
v 0.438196 -0.479907 -0.217355
v 0.616536 -0.352082 -0.217355
v 0.256915 -0.609841 -0.217355
vt 0.868998 0.575869
vt 0.916713 0.575869
vt 0.916713 0.459755
vt 0.476444 0.855303
vt 0.476444 0.903018
vt 0.512893 0.903018
vt 0.963744 0.717914
vt 0.916029 0.717914
vt 0.916029 0.834028
vt 0.253978 0.674691
vt 0.253978 0.626976
vt 0.217530 0.626976
vt 0.290538 0.463099
vt 0.254110 0.463085
vt 0.254110 0.579192
vt 0.023542 0.838616
vt 0.000000 0.822473
vt 0.000000 0.963681
vt 0.253978 0.579261
vt 0.217530 0.586464
vt 0.868998 0.717914
vt 0.868998 0.834028
vt 0.476444 0.950733
vt 0.512893 0.950050
vt 0.957224 0.575869
vt 0.957224 0.459755
vt 0.439996 0.943530
vt 0.290426 0.579944
vt 0.096425 0.838631
vt 0.096425 0.954738
vt 0.118957 0.963705
vt 0.217530 0.463153
vt 0.217530 0.579261
vt 0.290426 0.674691
vt 0.290426 0.626976
vt 0.690078 0.904599
vt 0.690078 0.868151
vt 0.664147 0.868151
vt 0.915733 0.338394
vt 0.879285 0.338394
vt 0.879285 0.386109
vt 0.868998 0.459755
vt 0.916713 0.433824
vt 0.586353 0.868151
vt 0.586353 0.915866
vt 0.612284 0.915866
vt 0.741938 0.904592
vt 0.741938 0.868151
vt 0.716008 0.868156
vt 0.946246 0.116176
vt 0.946246 0.176152
vt 0.974334 0.176152
vt 0.946246 0.235155
vt 0.974334 0.235155
vt 0.023542 0.954723
vt 0.059965 0.963693
vt 0.118957 0.822497
vt 0.059965 0.822485
vt 0.059983 0.954730
vt 0.059983 0.838623
vt 0.118979 0.681257
vt 0.059003 0.681257
vt 0.059003 0.822473
vt 0.000000 0.681257
vt 0.000000 0.822473
vt 0.290426 0.815907
vt 0.290426 0.674691
vt 0.262338 0.674691
vt 0.575381 0.606174
vt 0.575381 0.464958
vt 0.547293 0.464958
vt 0.957224 0.492827
vt 0.985313 0.492827
vt 0.985313 0.433824
vt 0.957224 0.552803
vt 0.985313 0.552803
vt 0.512893 0.855303
vt 0.963744 0.834028
vt 0.217530 0.674691
vt 0.290538 0.579207
vt 0.439996 0.903018
vt 0.664147 0.904599
vt 0.915733 0.386109
vt 0.868998 0.433824
vt 0.612284 0.868151
vt 0.716008 0.904598
vt 0.974335 0.116176
vt 0.118979 0.822473
vt 0.262338 0.815907
vt 0.547293 0.606174
vt 0.957224 0.433824
vn 0.2621 -0.8987 -0.3517
vn -0.5748 -0.4119 -0.7071
vn -0.5595 -0.7720 0.3015
vn 0.7734 -0.1262 0.6213
vn 0.4207 -0.0694 0.9045
vn 0.5747 0.4120 0.7071
vn 0.7755 -0.5407 0.3261
vn 0.5747 0.4119 -0.7071
vn 0.3892 -0.5431 -0.7440
vn -0.0000 -0.0000 -1.0000
vn -0.5747 -0.4120 -0.7071
vn 0.8061 -0.1252 0.5783
vn 0.3712 -0.6282 0.6838
vn 0.3712 -0.6282 -0.6838
vn -0.1776 -0.9835 0.0336
vn -0.1426 -0.8011 0.5813
vn -0.1452 -0.8009 -0.5809
vn 0.3712 -0.6281 -0.6838
vn -0.2088 -0.7812 -0.5883
vn 0.8061 -0.1253 0.5783
vn 0.8061 -0.1253 -0.5783
vn 0.3711 -0.6282 0.6838
vn -0.2087 -0.7812 -0.5883
vn -0.2087 -0.7812 0.5883
vn -0.2087 -0.7813 0.5883
vn 0.7755 -0.5407 0.3260
vn 0.7674 -0.5364 -0.3513
vn 0.8050 -0.1194 -0.5811
vn 0.3712 -0.6281 0.6838
vn 0.7674 -0.5363 -0.3513
vn 0.7733 -0.1262 0.6213
vn -0.8056 0.1329 0.5773
vn -0.1329 -0.8056 0.5774
vn 0.8056 -0.1329 0.5774
vn 0.1329 0.8056 0.5774
vn 0.8056 -0.1329 0.5773
vn -0.1427 -0.8011 0.5813
vn 0.3994 -0.5573 0.7279
vn -0.4119 0.5748 0.7071
vn 0.8044 -0.1220 0.5815
vn 0.2621 -0.8987 -0.3516
vn -0.1452 -0.8010 -0.5808
vn 0.3893 -0.5430 -0.7440
vn 0.8043 -0.1220 0.5815
vn 0.3995 -0.5573 0.7279
vn -0.8056 0.1329 0.5774
vn -0.4120 0.5747 0.7071
vn -0.4119 0.5748 -0.7071
vn 0.1329 0.8056 -0.5774
vn 0.8044 -0.1220 0.5814
vn -0.1452 -0.8010 -0.5809
vn -0.4120 0.5747 -0.7071
vn -0.1451 -0.8010 -0.5809
vn -0.8056 0.1330 -0.5774
vn 0.7755 -0.5406 0.3260
vn 0.8061 -0.1252 -0.5783
vn -0.8056 0.1330 0.5773
vn 0.8056 -0.1330 0.5773
vn 0.8051 -0.1194 -0.5811
vn -0.8056 0.1329 -0.5773
vn -0.8056 0.1329 -0.5774
usemtl Default_OBJ
s 1
f 1/1/1 3/2/2 2/3/3
f 4/4/4 6/5/5 5/6/6
f 7/7/7 5/8/6 8/9/8
f 9/10/9 10/11/10 3/12/11
f 11/13/12 13/14/13 12/15/14
f 14/16/15 16/17/16 15/18/17
f 10/11/10 12/19/18 17/20/19
f 5/8/6 11/21/20 18/22/21
f 6/5/5 13/23/22 11/24/12
f 3/2/2 17/25/23 19/26/24
f 19/27/25 13/23/22 6/5/5
f 18/28/21 12/19/18 10/11/10
f 7/29/26 21/30/27 20/31/28
f 13/14/29 19/32/24 17/33/23
f 21/34/30 8/35/8 10/11/10
f 4/36/31 14/37/15 22/38/32
f 23/39/33 25/40/34 24/41/35
f 14/42/15 2/3/3 23/43/33
f 6/44/5 4/45/4 24/46/35
f 2/47/3 6/48/5 25/49/36
f 16/50/37 27/51/38 26/52/39
f 27/51/38 29/53/40 28/54/35
f 1/55/41 15/18/42 30/56/43
f 7/29/26 29/57/44 27/58/45
f 21/30/27 9/59/9 30/56/43
f 14/16/15 4/60/4 27/58/45
f 31/61/46 26/62/47 32/63/48
f 26/62/47 28/64/35 33/65/49
f 29/66/50 20/67/28 33/68/49
f 15/69/51 16/70/37 31/71/32
f 30/72/9 32/73/52 33/74/49
f 15/75/53 34/76/54 32/73/52
f 1/1/1 2/3/3 14/42/15
f 4/4/4 5/6/6 7/77/55
f 7/7/7 8/9/8 21/78/30
f 9/10/9 3/12/11 1/79/41
f 11/13/12 12/15/14 18/80/56
f 14/16/15 15/18/17 1/55/41
f 10/11/10 17/20/19 3/12/11
f 5/8/6 18/22/21 8/9/8
f 6/5/5 11/24/12 5/6/6
f 3/2/2 19/26/24 2/3/3
f 19/27/25 6/5/5 2/81/3
f 18/28/21 10/11/10 8/35/8
f 7/29/26 20/31/28 29/57/40
f 13/14/29 17/33/23 12/15/18
f 21/34/30 10/11/10 9/10/9
f 4/36/31 22/38/32 24/82/35
f 23/39/33 24/41/35 22/83/46
f 14/42/15 23/43/33 22/84/57
f 6/44/5 24/46/35 25/85/58
f 2/47/3 25/49/36 23/86/33
f 16/50/37 26/52/39 31/87/46
f 27/51/38 28/54/35 26/52/39
f 1/55/41 30/56/43 9/59/9
f 7/29/26 27/58/45 4/60/4
f 21/30/27 30/56/43 20/31/59
f 14/16/15 27/58/45 16/17/37
f 31/61/46 32/63/48 34/88/60
f 26/62/47 33/65/49 32/63/48
f 29/66/50 33/68/49 28/89/35
f 15/69/51 31/71/32 34/90/61
f 30/72/9 33/74/49 20/91/59
f 15/75/53 32/73/52 30/72/9
