{
	"asset":{
		"generator":"Khronos glTF Blender I/O v3.5.30",
		"version":"2.0"
	},
	"scene":0,
	"scenes":[
		{
			"name":"Scene",
			"nodes":[
				7
			]
		}
	],
	"nodes":[
		{
			"name":"Bone.005",
			"rotation":[
				-3.5142841025736406e-21,
				-5.960464477539063e-08,
				-1.4210856409267898e-14,
				1
			],
			"translation":[
				2.4424906541753444e-15,
				0.2278623878955841,
				1.5338424974586928e-14
			]
		},
		{
			"children":[
				0
			],
			"name":"Bone.004",
			"rotation":[
				-0.00624963128939271,
				-5.237744105102138e-08,
				6.90853874107944e-10,
				0.9999805092811584
			],
			"scale":[
				1,
				1,
				0.9999999403953552
			],
			"translation":[
				-1.0436096431476471e-14,
				0.3255431354045868,
				9.313291249313238e-10
			]
		},
		{
			"children":[
				1
			],
			"name":"Bone.003",
			"rotation":[
				-0.009617863222956657,
				-3.181641261562618e-08,
				2.5338239839634014e-10,
				0.9999537467956543
			],
			"scale":[
				1,
				1.0000001192092896,
				1.0000001192092896
			],
			"translation":[
				8.788109129298505e-15,
				0.2564743459224701,
				-6.973588373426765e-16
			]
		},
		{
			"children":[
				2
			],
			"name":"Bone.002",
			"rotation":[
				0.015867017209529877,
				-3.500854006688314e-08,
				6.423829801427416e-10,
				0.9998741149902344
			],
			"scale":[
				1,
				0.9999998807907104,
				0.9999999403953552
			],
			"translation":[
				0,
				0.2766900360584259,
				2.117582368135751e-22
			]
		},
		{
			"children":[
				3
			],
			"name":"Bone.001",
			"rotation":[
				-5.071905386183715e-15,
				3.552713678800501e-15,
				6.71794140316706e-08,
				1
			],
			"translation":[
				0,
				0.3743615746498108,
				0
			]
		},
		{
			"children":[
				4
			],
			"name":"Bone",
			"rotation":[
				0.7071068286895752,
				0,
				-0.7071067094802856,
				0
			],
			"translation":[
				0,
				1.0750614404678345,
				0
			]
		},
		{
			"mesh":0,
			"name":"Cube.001",
			"skin":0
		},
		{
			"children":[
				6,
				5
			],
			"name":"\u30a2\u30fc\u30de\u30c1\u30e5\u30a2"
		}
	],
	"animations":[
		{
			"channels":[
				{
					"sampler":0,
					"target":{
						"node":5,
						"path":"translation"
					}
				},
				{
					"sampler":1,
					"target":{
						"node":5,
						"path":"rotation"
					}
				},
				{
					"sampler":2,
					"target":{
						"node":5,
						"path":"scale"
					}
				},
				{
					"sampler":3,
					"target":{
						"node":4,
						"path":"translation"
					}
				},
				{
					"sampler":4,
					"target":{
						"node":4,
						"path":"rotation"
					}
				},
				{
					"sampler":5,
					"target":{
						"node":4,
						"path":"scale"
					}
				},
				{
					"sampler":6,
					"target":{
						"node":3,
						"path":"translation"
					}
				},
				{
					"sampler":7,
					"target":{
						"node":3,
						"path":"rotation"
					}
				},
				{
					"sampler":8,
					"target":{
						"node":3,
						"path":"scale"
					}
				},
				{
					"sampler":9,
					"target":{
						"node":2,
						"path":"translation"
					}
				},
				{
					"sampler":10,
					"target":{
						"node":2,
						"path":"rotation"
					}
				},
				{
					"sampler":11,
					"target":{
						"node":2,
						"path":"scale"
					}
				},
				{
					"sampler":12,
					"target":{
						"node":1,
						"path":"translation"
					}
				},
				{
					"sampler":13,
					"target":{
						"node":1,
						"path":"rotation"
					}
				},
				{
					"sampler":14,
					"target":{
						"node":1,
						"path":"scale"
					}
				},
				{
					"sampler":15,
					"target":{
						"node":0,
						"path":"translation"
					}
				},
				{
					"sampler":16,
					"target":{
						"node":0,
						"path":"rotation"
					}
				},
				{
					"sampler":17,
					"target":{
						"node":0,
						"path":"scale"
					}
				}
			],
			"name":"\u30a2\u30fc\u30de\u30c1\u30e5\u30a2Action",
			"samplers":[
				{
					"input":7,
					"interpolation":"LINEAR",
					"output":8
				},
				{
					"input":7,
					"interpolation":"LINEAR",
					"output":9
				},
				{
					"input":7,
					"interpolation":"LINEAR",
					"output":10
				},
				{
					"input":7,
					"interpolation":"LINEAR",
					"output":11
				},
				{
					"input":7,
					"interpolation":"LINEAR",
					"output":12
				},
				{
					"input":7,
					"interpolation":"LINEAR",
					"output":13
				},
				{
					"input":7,
					"interpolation":"LINEAR",
					"output":14
				},
				{
					"input":7,
					"interpolation":"LINEAR",
					"output":15
				},
				{
					"input":7,
					"interpolation":"LINEAR",
					"output":16
				},
				{
					"input":7,
					"interpolation":"LINEAR",
					"output":17
				},
				{
					"input":7,
					"interpolation":"LINEAR",
					"output":18
				},
				{
					"input":7,
					"interpolation":"LINEAR",
					"output":19
				},
				{
					"input":7,
					"interpolation":"LINEAR",
					"output":20
				},
				{
					"input":7,
					"interpolation":"LINEAR",
					"output":21
				},
				{
					"input":7,
					"interpolation":"LINEAR",
					"output":22
				},
				{
					"input":7,
					"interpolation":"LINEAR",
					"output":23
				},
				{
					"input":7,
					"interpolation":"LINEAR",
					"output":24
				},
				{
					"input":7,
					"interpolation":"LINEAR",
					"output":25
				}
			]
		}
	],
	"materials":[
		{
			"doubleSided":true,
			"name":"Material.001",
			"pbrMetallicRoughness":{
				"baseColorTexture":{
					"index":0
				},
				"metallicFactor":0,
				"roughnessFactor":0.5
			}
		}
	],
	"meshes":[
		{
			"name":"Cube.001",
			"primitives":[
				{
					"attributes":{
						"POSITION":0,
						"TEXCOORD_0":1,
						"NORMAL":2,
						"JOINTS_0":3,
						"WEIGHTS_0":4
					},
					"indices":5,
					"material":0
				}
			]
		}
	],
	"textures":[
		{
			"sampler":0,
			"source":0
		}
	],
	"images":[
		{
			"mimeType":"image/png",
			"name":"Player.png",
			"uri":"Player.png"
		}
	],
	"skins":[
		{
			"inverseBindMatrices":6,
			"joints":[
				5,
				4,
				3,
				2,
				1,
				0
			],
			"name":"\u30a2\u30fc\u30de\u30c1\u30e5\u30a2"
		}
	],
	"accessors":[
		{
			"bufferView":0,
			"componentType":5126,
			"count":180,
			"max":[
				0.7587040066719055,
				1.1040860414505005,
				0.7582890391349792
			],
			"min":[
				-0.7586020231246948,
				-0.6311750411987305,
				-0.7590169310569763
			],
			"type":"VEC3"
		},
		{
			"bufferView":1,
			"componentType":5126,
			"count":180,
			"type":"VEC2"
		},
		{
			"bufferView":2,
			"componentType":5126,
			"count":180,
			"type":"VEC3"
		},
		{
			"bufferView":3,
			"componentType":5121,
			"count":180,
			"type":"VEC4"
		},
		{
			"bufferView":4,
			"componentType":5126,
			"count":180,
			"type":"VEC4"
		},
		{
			"bufferView":5,
			"componentType":5123,
			"count":528,
			"type":"SCALAR"
		},
		{
			"bufferView":6,
			"componentType":5126,
			"count":6,
			"type":"MAT4"
		},
		{
			"bufferView":7,
			"componentType":5126,
			"count":41,
			"max":[
				1.6666666666666667
			],
			"min":[
				0
			],
			"type":"SCALAR"
		},
		{
			"bufferView":8,
			"componentType":5126,
			"count":41,
			"type":"VEC3"
		},
		{
			"bufferView":9,
			"componentType":5126,
			"count":41,
			"type":"VEC4"
		},
		{
			"bufferView":10,
			"componentType":5126,
			"count":41,
			"type":"VEC3"
		},
		{
			"bufferView":11,
			"componentType":5126,
			"count":41,
			"type":"VEC3"
		},
		{
			"bufferView":12,
			"componentType":5126,
			"count":41,
			"type":"VEC4"
		},
		{
			"bufferView":13,
			"componentType":5126,
			"count":41,
			"type":"VEC3"
		},
		{
			"bufferView":14,
			"componentType":5126,
			"count":41,
			"type":"VEC3"
		},
		{
			"bufferView":15,
			"componentType":5126,
			"count":41,
			"type":"VEC4"
		},
		{
			"bufferView":16,
			"componentType":5126,
			"count":41,
			"type":"VEC3"
		},
		{
			"bufferView":17,
			"componentType":5126,
			"count":41,
			"type":"VEC3"
		},
		{
			"bufferView":18,
			"componentType":5126,
			"count":41,
			"type":"VEC4"
		},
		{
			"bufferView":19,
			"componentType":5126,
			"count":41,
			"type":"VEC3"
		},
		{
			"bufferView":20,
			"componentType":5126,
			"count":41,
			"type":"VEC3"
		},
		{
			"bufferView":21,
			"componentType":5126,
			"count":41,
			"type":"VEC4"
		},
		{
			"bufferView":22,
			"componentType":5126,
			"count":41,
			"type":"VEC3"
		},
		{
			"bufferView":23,
			"componentType":5126,
			"count":41,
			"type":"VEC3"
		},
		{
			"bufferView":24,
			"componentType":5126,
			"count":41,
			"type":"VEC4"
		},
		{
			"bufferView":25,
			"componentType":5126,
			"count":41,
			"type":"VEC3"
		}
	],
	"bufferViews":[
		{
			"buffer":0,
			"byteLength":2160,
			"byteOffset":0,
			"target":34962
		},
		{
			"buffer":0,
			"byteLength":1440,
			"byteOffset":2160,
			"target":34962
		},
		{
			"buffer":0,
			"byteLength":2160,
			"byteOffset":3600,
			"target":34962
		},
		{
			"buffer":0,
			"byteLength":720,
			"byteOffset":5760,
			"target":34962
		},
		{
			"buffer":0,
			"byteLength":2880,
			"byteOffset":6480,
			"target":34962
		},
		{
			"buffer":0,
			"byteLength":1056,
			"byteOffset":9360,
			"target":34963
		},
		{
			"buffer":0,
			"byteLength":384,
			"byteOffset":10416
		},
		{
			"buffer":0,
			"byteLength":164,
			"byteOffset":10800
		},
		{
			"buffer":0,
			"byteLength":492,
			"byteOffset":10964
		},
		{
			"buffer":0,
			"byteLength":656,
			"byteOffset":11456
		},
		{
			"buffer":0,
			"byteLength":492,
			"byteOffset":12112
		},
		{
			"buffer":0,
			"byteLength":492,
			"byteOffset":12604
		},
		{
			"buffer":0,
			"byteLength":656,
			"byteOffset":13096
		},
		{
			"buffer":0,
			"byteLength":492,
			"byteOffset":13752
		},
		{
			"buffer":0,
			"byteLength":492,
			"byteOffset":14244
		},
		{
			"buffer":0,
			"byteLength":656,
			"byteOffset":14736
		},
		{
			"buffer":0,
			"byteLength":492,
			"byteOffset":15392
		},
		{
			"buffer":0,
			"byteLength":492,
			"byteOffset":15884
		},
		{
			"buffer":0,
			"byteLength":656,
			"byteOffset":16376
		},
		{
			"buffer":0,
			"byteLength":492,
			"byteOffset":17032
		},
		{
			"buffer":0,
			"byteLength":492,
			"byteOffset":17524
		},
		{
			"buffer":0,
			"byteLength":656,
			"byteOffset":18016
		},
		{
			"buffer":0,
			"byteLength":492,
			"byteOffset":18672
		},
		{
			"buffer":0,
			"byteLength":492,
			"byteOffset":19164
		},
		{
			"buffer":0,
			"byteLength":656,
			"byteOffset":19656
		},
		{
			"buffer":0,
			"byteLength":492,
			"byteOffset":20312
		}
	],
	"samplers":[
		{
			"magFilter":9729,
			"minFilter":9987
		}
	],
	"buffers":[
		{
			"byteLength":20804,
			"uri":"player.bin"
		}
	]
}
