{
	"asset":{
		"generator":"Khronos glTF Blender I/O v3.5.30",
		"version":"2.0"
	},
	"scene":0,
	"scenes":[
		{
			"name":"Scene",
			"nodes":[
				18
			]
		}
	],
	"nodes":[
		{
			"name":"Bone.004",
			"rotation":[
				2.3837150919803207e-08,
				1.3021845290950296e-07,
				-0.07167350500822067,
				0.9974281787872314
			],
			"scale":[
				1,
				0.9999999403953552,
				1
			],
			"translation":[
				-5.587900364645293e-09,
				0.5233888030052185,
				7.105427357601002e-15
			]
		},
		{
			"children":[
				0
			],
			"name":"Bone.003",
			"rotation":[
				7.2277521745434115e-09,
				5.064715580260781e-08,
				-0.04776446148753166,
				0.998858630657196
			],
			"scale":[
				1,
				0.9999999403953552,
				1
			],
			"translation":[
				5.215407483660783e-08,
				0.5210909247398376,
				1.7763568394002505e-14
			]
		},
		{
			"children":[
				1
			],
			"name":"Bone.002",
			"rotation":[
				-1.2836106400015979e-08,
				1.1342600458874585e-07,
				-0.46573832631111145,
				0.8849225044250488
			],
			"scale":[
				0.9999998807907104,
				0.9999999403953552,
				1
			],
			"translation":[
				1.4901161193847656e-08,
				0.4338659644126892,
				-4.440892098500626e-15
			]
		},
		{
			"children":[
				2
			],
			"name":"Bone.001",
			"rotation":[
				-2.3889695555112667e-08,
				8.96827678786849e-09,
				-0.8112422227859497,
				0.5847102999687195
			],
			"translation":[
				0,
				1.0617401599884033,
				0
			]
		},
		{
			"name":"Bone.008",
			"rotation":[
				1.0480308176852304e-08,
				-6.955502129812885e-08,
				0.06847070157527924,
				0.9976531267166138
			],
			"translation":[
				-2.793969322567591e-08,
				0.5481583476066589,
				2.1316282072803006e-14
			]
		},
		{
			"children":[
				4
			],
			"name":"Bone.007",
			"rotation":[
				3.299764461672794e-09,
				-1.0923990600986144e-08,
				0.045571379363536835,
				0.9989610910415649
			],
			"translation":[
				-2.235175067255568e-08,
				0.5440651178359985,
				7.105427357601002e-15
			]
		},
		{
			"children":[
				5
			],
			"name":"Bone.006",
			"rotation":[
				-2.5172591122668564e-08,
				-9.706408121701315e-08,
				0.49850979447364807,
				0.8668840527534485
			],
			"translation":[
				-2.2351741790771484e-08,
				0.41462016105651855,
				0
			]
		},
		{
			"children":[
				6
			],
			"name":"Bone.005",
			"rotation":[
				-2.474601501489815e-08,
				-5.073832465285477e-09,
				0.8003969192504883,
				0.5994704365730286
			],
			"scale":[
				1.0000001192092896,
				1,
				1
			],
			"translation":[
				0,
				1.0617401599884033,
				0
			]
		},
		{
			"name":"Bone.012",
			"rotation":[
				-0.06306498497724533,
				-2.5586059539914633e-15,
				1.5035864109336217e-08,
				0.998009443283081
			],
			"scale":[
				1,
				0.9999999403953552,
				1
			],
			"translation":[
				-1.199040866595169e-14,
				0.540376603603363,
				-5.029141902923584e-08
			]
		},
		{
			"children":[
				8
			],
			"name":"Bone.011",
			"rotation":[
				-0.08469897508621216,
				2.2284536869754184e-15,
				2.0193809291413345e-08,
				0.996406614780426
			],
			"translation":[
				1.7763568394002505e-14,
				0.5402023792266846,
				7.450580596923828e-08
			]
		},
		{
			"children":[
				9
			],
			"name":"Bone.010",
			"rotation":[
				-0.4758788049221039,
				8.078839314651538e-15,
				1.1345834849407765e-07,
				0.8795108795166016
			],
			"scale":[
				1,
				0.9999999403953552,
				0.9999999403953552
			],
			"translation":[
				-1.0658141036401503e-14,
				0.4127431809902191,
				-5.21540641784668e-08
			]
		},
		{
			"children":[
				10
			],
			"name":"Bone.009",
			"rotation":[
				-0.7955906987190247,
				-7.222110554039318e-08,
				9.484180907293194e-08,
				0.6058345437049866
			],
			"translation":[
				0,
				1.0617401599884033,
				0
			]
		},
		{
			"name":"Bone.016",
			"rotation":[
				0.04465420916676521,
				-2.7783290533663074e-15,
				2.1292796859029295e-08,
				0.9990025162696838
			],
			"translation":[
				-7.872219179696008e-15,
				0.5871233940124512,
				1.4901161193847656e-08
			]
		},
		{
			"children":[
				12
			],
			"name":"Bone.015",
			"rotation":[
				0.08401121199131012,
				-1.9386415758305964e-14,
				4.005966403042294e-08,
				0.9964647889137268
			],
			"scale":[
				1,
				1,
				0.9999999403953552
			],
			"translation":[
				-3.397931282590576e-14,
				0.5361801385879517,
				2.9802322387695312e-08
			]
		},
		{
			"children":[
				13
			],
			"name":"Bone.014",
			"rotation":[
				0.48783451318740845,
				-2.808192318005248e-13,
				2.3261782189365476e-07,
				0.8729361295700073
			],
			"scale":[
				1,
				1.0000001192092896,
				1.0000001192092896
			],
			"translation":[
				4.418038810770526e-14,
				0.3910815715789795,
				-7.450580596923828e-09
			]
		},
		{
			"children":[
				14
			],
			"name":"Bone.013",
			"rotation":[
				0.7947067022323608,
				1.4471874010268948e-07,
				1.8947309854411287e-07,
				0.6069936156272888
			],
			"translation":[
				0,
				1.0617401599884033,
				0
			]
		},
		{
			"children":[
				3,
				7,
				11,
				15
			],
			"name":"Bone"
		},
		{
			"mesh":0,
			"name":"Cube.001",
			"skin":0
		},
		{
			"children":[
				17,
				16
			],
			"name":"\u30a2\u30fc\u30de\u30c1\u30e5\u30a2"
		}
	],
	"animations":[
		{
			"channels":[
				{
					"sampler":0,
					"target":{
						"node":16,
						"path":"translation"
					}
				},
				{
					"sampler":1,
					"target":{
						"node":16,
						"path":"rotation"
					}
				},
				{
					"sampler":2,
					"target":{
						"node":16,
						"path":"scale"
					}
				},
				{
					"sampler":3,
					"target":{
						"node":3,
						"path":"translation"
					}
				},
				{
					"sampler":4,
					"target":{
						"node":3,
						"path":"rotation"
					}
				},
				{
					"sampler":5,
					"target":{
						"node":3,
						"path":"scale"
					}
				},
				{
					"sampler":6,
					"target":{
						"node":2,
						"path":"translation"
					}
				},
				{
					"sampler":7,
					"target":{
						"node":2,
						"path":"rotation"
					}
				},
				{
					"sampler":8,
					"target":{
						"node":2,
						"path":"scale"
					}
				},
				{
					"sampler":9,
					"target":{
						"node":1,
						"path":"translation"
					}
				},
				{
					"sampler":10,
					"target":{
						"node":1,
						"path":"rotation"
					}
				},
				{
					"sampler":11,
					"target":{
						"node":1,
						"path":"scale"
					}
				},
				{
					"sampler":12,
					"target":{
						"node":0,
						"path":"translation"
					}
				},
				{
					"sampler":13,
					"target":{
						"node":0,
						"path":"rotation"
					}
				},
				{
					"sampler":14,
					"target":{
						"node":0,
						"path":"scale"
					}
				},
				{
					"sampler":15,
					"target":{
						"node":7,
						"path":"translation"
					}
				},
				{
					"sampler":16,
					"target":{
						"node":7,
						"path":"rotation"
					}
				},
				{
					"sampler":17,
					"target":{
						"node":7,
						"path":"scale"
					}
				},
				{
					"sampler":18,
					"target":{
						"node":6,
						"path":"translation"
					}
				},
				{
					"sampler":19,
					"target":{
						"node":6,
						"path":"rotation"
					}
				},
				{
					"sampler":20,
					"target":{
						"node":6,
						"path":"scale"
					}
				},
				{
					"sampler":21,
					"target":{
						"node":5,
						"path":"translation"
					}
				},
				{
					"sampler":22,
					"target":{
						"node":5,
						"path":"rotation"
					}
				},
				{
					"sampler":23,
					"target":{
						"node":5,
						"path":"scale"
					}
				},
				{
					"sampler":24,
					"target":{
						"node":4,
						"path":"translation"
					}
				},
				{
					"sampler":25,
					"target":{
						"node":4,
						"path":"rotation"
					}
				},
				{
					"sampler":26,
					"target":{
						"node":4,
						"path":"scale"
					}
				},
				{
					"sampler":27,
					"target":{
						"node":11,
						"path":"translation"
					}
				},
				{
					"sampler":28,
					"target":{
						"node":11,
						"path":"rotation"
					}
				},
				{
					"sampler":29,
					"target":{
						"node":11,
						"path":"scale"
					}
				},
				{
					"sampler":30,
					"target":{
						"node":10,
						"path":"translation"
					}
				},
				{
					"sampler":31,
					"target":{
						"node":10,
						"path":"rotation"
					}
				},
				{
					"sampler":32,
					"target":{
						"node":10,
						"path":"scale"
					}
				},
				{
					"sampler":33,
					"target":{
						"node":9,
						"path":"translation"
					}
				},
				{
					"sampler":34,
					"target":{
						"node":9,
						"path":"rotation"
					}
				},
				{
					"sampler":35,
					"target":{
						"node":9,
						"path":"scale"
					}
				},
				{
					"sampler":36,
					"target":{
						"node":8,
						"path":"translation"
					}
				},
				{
					"sampler":37,
					"target":{
						"node":8,
						"path":"rotation"
					}
				},
				{
					"sampler":38,
					"target":{
						"node":8,
						"path":"scale"
					}
				},
				{
					"sampler":39,
					"target":{
						"node":15,
						"path":"translation"
					}
				},
				{
					"sampler":40,
					"target":{
						"node":15,
						"path":"rotation"
					}
				},
				{
					"sampler":41,
					"target":{
						"node":15,
						"path":"scale"
					}
				},
				{
					"sampler":42,
					"target":{
						"node":14,
						"path":"translation"
					}
				},
				{
					"sampler":43,
					"target":{
						"node":14,
						"path":"rotation"
					}
				},
				{
					"sampler":44,
					"target":{
						"node":14,
						"path":"scale"
					}
				},
				{
					"sampler":45,
					"target":{
						"node":13,
						"path":"translation"
					}
				},
				{
					"sampler":46,
					"target":{
						"node":13,
						"path":"rotation"
					}
				},
				{
					"sampler":47,
					"target":{
						"node":13,
						"path":"scale"
					}
				},
				{
					"sampler":48,
					"target":{
						"node":12,
						"path":"translation"
					}
				},
				{
					"sampler":49,
					"target":{
						"node":12,
						"path":"rotation"
					}
				},
				{
					"sampler":50,
					"target":{
						"node":12,
						"path":"scale"
					}
				}
			],
			"name":"\u30a2\u30fc\u30de\u30c1\u30e5\u30a2Action",
			"samplers":[
				{
					"input":7,
					"interpolation":"LINEAR",
					"output":8
				},
				{
					"input":7,
					"interpolation":"LINEAR",
					"output":9
				},
				{
					"input":7,
					"interpolation":"LINEAR",
					"output":10
				},
				{
					"input":7,
					"interpolation":"LINEAR",
					"output":11
				},
				{
					"input":7,
					"interpolation":"LINEAR",
					"output":12
				},
				{
					"input":7,
					"interpolation":"LINEAR",
					"output":13
				},
				{
					"input":7,
					"interpolation":"LINEAR",
					"output":14
				},
				{
					"input":7,
					"interpolation":"LINEAR",
					"output":15
				},
				{
					"input":7,
					"interpolation":"LINEAR",
					"output":16
				},
				{
					"input":7,
					"interpolation":"LINEAR",
					"output":17
				},
				{
					"input":7,
					"interpolation":"LINEAR",
					"output":18
				},
				{
					"input":7,
					"interpolation":"LINEAR",
					"output":19
				},
				{
					"input":7,
					"interpolation":"LINEAR",
					"output":20
				},
				{
					"input":7,
					"interpolation":"LINEAR",
					"output":21
				},
				{
					"input":7,
					"interpolation":"LINEAR",
					"output":22
				},
				{
					"input":7,
					"interpolation":"LINEAR",
					"output":23
				},
				{
					"input":7,
					"interpolation":"LINEAR",
					"output":24
				},
				{
					"input":7,
					"interpolation":"LINEAR",
					"output":25
				},
				{
					"input":7,
					"interpolation":"LINEAR",
					"output":26
				},
				{
					"input":7,
					"interpolation":"LINEAR",
					"output":27
				},
				{
					"input":7,
					"interpolation":"LINEAR",
					"output":28
				},
				{
					"input":7,
					"interpolation":"LINEAR",
					"output":29
				},
				{
					"input":7,
					"interpolation":"LINEAR",
					"output":30
				},
				{
					"input":7,
					"interpolation":"LINEAR",
					"output":31
				},
				{
					"input":7,
					"interpolation":"LINEAR",
					"output":32
				},
				{
					"input":7,
					"interpolation":"LINEAR",
					"output":33
				},
				{
					"input":7,
					"interpolation":"LINEAR",
					"output":34
				},
				{
					"input":7,
					"interpolation":"LINEAR",
					"output":35
				},
				{
					"input":7,
					"interpolation":"LINEAR",
					"output":36
				},
				{
					"input":7,
					"interpolation":"LINEAR",
					"output":37
				},
				{
					"input":7,
					"interpolation":"LINEAR",
					"output":38
				},
				{
					"input":7,
					"interpolation":"LINEAR",
					"output":39
				},
				{
					"input":7,
					"interpolation":"LINEAR",
					"output":40
				},
				{
					"input":7,
					"interpolation":"LINEAR",
					"output":41
				},
				{
					"input":7,
					"interpolation":"LINEAR",
					"output":42
				},
				{
					"input":7,
					"interpolation":"LINEAR",
					"output":43
				},
				{
					"input":7,
					"interpolation":"LINEAR",
					"output":44
				},
				{
					"input":7,
					"interpolation":"LINEAR",
					"output":45
				},
				{
					"input":7,
					"interpolation":"LINEAR",
					"output":46
				},
				{
					"input":7,
					"interpolation":"LINEAR",
					"output":47
				},
				{
					"input":7,
					"interpolation":"LINEAR",
					"output":48
				},
				{
					"input":7,
					"interpolation":"LINEAR",
					"output":49
				},
				{
					"input":7,
					"interpolation":"LINEAR",
					"output":50
				},
				{
					"input":7,
					"interpolation":"LINEAR",
					"output":51
				},
				{
					"input":7,
					"interpolation":"LINEAR",
					"output":52
				},
				{
					"input":7,
					"interpolation":"LINEAR",
					"output":53
				},
				{
					"input":7,
					"interpolation":"LINEAR",
					"output":54
				},
				{
					"input":7,
					"interpolation":"LINEAR",
					"output":55
				},
				{
					"input":7,
					"interpolation":"LINEAR",
					"output":56
				},
				{
					"input":7,
					"interpolation":"LINEAR",
					"output":57
				},
				{
					"input":7,
					"interpolation":"LINEAR",
					"output":58
				}
			]
		}
	],
	"materials":[
		{
			"doubleSided":true,
			"name":"Material.001",
			"pbrMetallicRoughness":{
				"baseColorTexture":{
					"index":0
				},
				"metallicFactor":0,
				"roughnessFactor":0.5
			}
		}
	],
	"meshes":[
		{
			"name":"Cube.001",
			"primitives":[
				{
					"attributes":{
						"POSITION":0,
						"TEXCOORD_0":1,
						"NORMAL":2,
						"JOINTS_0":3,
						"WEIGHTS_0":4
					},
					"indices":5,
					"material":0
				}
			]
		}
	],
	"textures":[
		{
			"sampler":0,
			"source":0
		}
	],
	"images":[
		{
			"mimeType":"image/png",
			"name":"Player.png",
			"uri":"Player.png"
		}
	],
	"skins":[
		{
			"inverseBindMatrices":6,
			"joints":[
				16,
				3,
				2,
				1,
				0,
				7,
				6,
				5,
				4,
				11,
				10,
				9,
				8,
				15,
				14,
				13,
				12
			],
			"name":"\u30a2\u30fc\u30de\u30c1\u30e5\u30a2"
		}
	],
	"accessors":[
		{
			"bufferView":0,
			"componentType":5126,
			"count":180,
			"max":[
				0.7587040066719055,
				1.1040860414505005,
				0.7582890391349792
			],
			"min":[
				-0.7586020231246948,
				-0.6311750411987305,
				-0.7590169310569763
			],
			"type":"VEC3"
		},
		{
			"bufferView":1,
			"componentType":5126,
			"count":180,
			"type":"VEC2"
		},
		{
			"bufferView":2,
			"componentType":5126,
			"count":180,
			"type":"VEC3"
		},
		{
			"bufferView":3,
			"componentType":5121,
			"count":180,
			"type":"VEC4"
		},
		{
			"bufferView":4,
			"componentType":5126,
			"count":180,
			"type":"VEC4"
		},
		{
			"bufferView":5,
			"componentType":5123,
			"count":528,
			"type":"SCALAR"
		},
		{
			"bufferView":6,
			"componentType":5126,
			"count":17,
			"type":"MAT4"
		},
		{
			"bufferView":7,
			"componentType":5126,
			"count":120,
			"max":[
				5
			],
			"min":[
				0.041666666666666664
			],
			"type":"SCALAR"
		},
		{
			"bufferView":8,
			"componentType":5126,
			"count":120,
			"type":"VEC3"
		},
		{
			"bufferView":9,
			"componentType":5126,
			"count":120,
			"type":"VEC4"
		},
		{
			"bufferView":10,
			"componentType":5126,
			"count":120,
			"type":"VEC3"
		},
		{
			"bufferView":11,
			"componentType":5126,
			"count":120,
			"type":"VEC3"
		},
		{
			"bufferView":12,
			"componentType":5126,
			"count":120,
			"type":"VEC4"
		},
		{
			"bufferView":13,
			"componentType":5126,
			"count":120,
			"type":"VEC3"
		},
		{
			"bufferView":14,
			"componentType":5126,
			"count":120,
			"type":"VEC3"
		},
		{
			"bufferView":15,
			"componentType":5126,
			"count":120,
			"type":"VEC4"
		},
		{
			"bufferView":16,
			"componentType":5126,
			"count":120,
			"type":"VEC3"
		},
		{
			"bufferView":17,
			"componentType":5126,
			"count":120,
			"type":"VEC3"
		},
		{
			"bufferView":18,
			"componentType":5126,
			"count":120,
			"type":"VEC4"
		},
		{
			"bufferView":19,
			"componentType":5126,
			"count":120,
			"type":"VEC3"
		},
		{
			"bufferView":20,
			"componentType":5126,
			"count":120,
			"type":"VEC3"
		},
		{
			"bufferView":21,
			"componentType":5126,
			"count":120,
			"type":"VEC4"
		},
		{
			"bufferView":22,
			"componentType":5126,
			"count":120,
			"type":"VEC3"
		},
		{
			"bufferView":23,
			"componentType":5126,
			"count":120,
			"type":"VEC3"
		},
		{
			"bufferView":24,
			"componentType":5126,
			"count":120,
			"type":"VEC4"
		},
		{
			"bufferView":25,
			"componentType":5126,
			"count":120,
			"type":"VEC3"
		},
		{
			"bufferView":26,
			"componentType":5126,
			"count":120,
			"type":"VEC3"
		},
		{
			"bufferView":27,
			"componentType":5126,
			"count":120,
			"type":"VEC4"
		},
		{
			"bufferView":28,
			"componentType":5126,
			"count":120,
			"type":"VEC3"
		},
		{
			"bufferView":29,
			"componentType":5126,
			"count":120,
			"type":"VEC3"
		},
		{
			"bufferView":30,
			"componentType":5126,
			"count":120,
			"type":"VEC4"
		},
		{
			"bufferView":31,
			"componentType":5126,
			"count":120,
			"type":"VEC3"
		},
		{
			"bufferView":32,
			"componentType":5126,
			"count":120,
			"type":"VEC3"
		},
		{
			"bufferView":33,
			"componentType":5126,
			"count":120,
			"type":"VEC4"
		},
		{
			"bufferView":34,
			"componentType":5126,
			"count":120,
			"type":"VEC3"
		},
		{
			"bufferView":35,
			"componentType":5126,
			"count":120,
			"type":"VEC3"
		},
		{
			"bufferView":36,
			"componentType":5126,
			"count":120,
			"type":"VEC4"
		},
		{
			"bufferView":37,
			"componentType":5126,
			"count":120,
			"type":"VEC3"
		},
		{
			"bufferView":38,
			"componentType":5126,
			"count":120,
			"type":"VEC3"
		},
		{
			"bufferView":39,
			"componentType":5126,
			"count":120,
			"type":"VEC4"
		},
		{
			"bufferView":40,
			"componentType":5126,
			"count":120,
			"type":"VEC3"
		},
		{
			"bufferView":41,
			"componentType":5126,
			"count":120,
			"type":"VEC3"
		},
		{
			"bufferView":42,
			"componentType":5126,
			"count":120,
			"type":"VEC4"
		},
		{
			"bufferView":43,
			"componentType":5126,
			"count":120,
			"type":"VEC3"
		},
		{
			"bufferView":44,
			"componentType":5126,
			"count":120,
			"type":"VEC3"
		},
		{
			"bufferView":45,
			"componentType":5126,
			"count":120,
			"type":"VEC4"
		},
		{
			"bufferView":46,
			"componentType":5126,
			"count":120,
			"type":"VEC3"
		},
		{
			"bufferView":47,
			"componentType":5126,
			"count":120,
			"type":"VEC3"
		},
		{
			"bufferView":48,
			"componentType":5126,
			"count":120,
			"type":"VEC4"
		},
		{
			"bufferView":49,
			"componentType":5126,
			"count":120,
			"type":"VEC3"
		},
		{
			"bufferView":50,
			"componentType":5126,
			"count":120,
			"type":"VEC3"
		},
		{
			"bufferView":51,
			"componentType":5126,
			"count":120,
			"type":"VEC4"
		},
		{
			"bufferView":52,
			"componentType":5126,
			"count":120,
			"type":"VEC3"
		},
		{
			"bufferView":53,
			"componentType":5126,
			"count":120,
			"type":"VEC3"
		},
		{
			"bufferView":54,
			"componentType":5126,
			"count":120,
			"type":"VEC4"
		},
		{
			"bufferView":55,
			"componentType":5126,
			"count":120,
			"type":"VEC3"
		},
		{
			"bufferView":56,
			"componentType":5126,
			"count":120,
			"type":"VEC3"
		},
		{
			"bufferView":57,
			"componentType":5126,
			"count":120,
			"type":"VEC4"
		},
		{
			"bufferView":58,
			"componentType":5126,
			"count":120,
			"type":"VEC3"
		}
	],
	"bufferViews":[
		{
			"buffer":0,
			"byteLength":2160,
			"byteOffset":0,
			"target":34962
		},
		{
			"buffer":0,
			"byteLength":1440,
			"byteOffset":2160,
			"target":34962
		},
		{
			"buffer":0,
			"byteLength":2160,
			"byteOffset":3600,
			"target":34962
		},
		{
			"buffer":0,
			"byteLength":720,
			"byteOffset":5760,
			"target":34962
		},
		{
			"buffer":0,
			"byteLength":2880,
			"byteOffset":6480,
			"target":34962
		},
		{
			"buffer":0,
			"byteLength":1056,
			"byteOffset":9360,
			"target":34963
		},
		{
			"buffer":0,
			"byteLength":1088,
			"byteOffset":10416
		},
		{
			"buffer":0,
			"byteLength":480,
			"byteOffset":11504
		},
		{
			"buffer":0,
			"byteLength":1440,
			"byteOffset":11984
		},
		{
			"buffer":0,
			"byteLength":1920,
			"byteOffset":13424
		},
		{
			"buffer":0,
			"byteLength":1440,
			"byteOffset":15344
		},
		{
			"buffer":0,
			"byteLength":1440,
			"byteOffset":16784
		},
		{
			"buffer":0,
			"byteLength":1920,
			"byteOffset":18224
		},
		{
			"buffer":0,
			"byteLength":1440,
			"byteOffset":20144
		},
		{
			"buffer":0,
			"byteLength":1440,
			"byteOffset":21584
		},
		{
			"buffer":0,
			"byteLength":1920,
			"byteOffset":23024
		},
		{
			"buffer":0,
			"byteLength":1440,
			"byteOffset":24944
		},
		{
			"buffer":0,
			"byteLength":1440,
			"byteOffset":26384
		},
		{
			"buffer":0,
			"byteLength":1920,
			"byteOffset":27824
		},
		{
			"buffer":0,
			"byteLength":1440,
			"byteOffset":29744
		},
		{
			"buffer":0,
			"byteLength":1440,
			"byteOffset":31184
		},
		{
			"buffer":0,
			"byteLength":1920,
			"byteOffset":32624
		},
		{
			"buffer":0,
			"byteLength":1440,
			"byteOffset":34544
		},
		{
			"buffer":0,
			"byteLength":1440,
			"byteOffset":35984
		},
		{
			"buffer":0,
			"byteLength":1920,
			"byteOffset":37424
		},
		{
			"buffer":0,
			"byteLength":1440,
			"byteOffset":39344
		},
		{
			"buffer":0,
			"byteLength":1440,
			"byteOffset":40784
		},
		{
			"buffer":0,
			"byteLength":1920,
			"byteOffset":42224
		},
		{
			"buffer":0,
			"byteLength":1440,
			"byteOffset":44144
		},
		{
			"buffer":0,
			"byteLength":1440,
			"byteOffset":45584
		},
		{
			"buffer":0,
			"byteLength":1920,
			"byteOffset":47024
		},
		{
			"buffer":0,
			"byteLength":1440,
			"byteOffset":48944
		},
		{
			"buffer":0,
			"byteLength":1440,
			"byteOffset":50384
		},
		{
			"buffer":0,
			"byteLength":1920,
			"byteOffset":51824
		},
		{
			"buffer":0,
			"byteLength":1440,
			"byteOffset":53744
		},
		{
			"buffer":0,
			"byteLength":1440,
			"byteOffset":55184
		},
		{
			"buffer":0,
			"byteLength":1920,
			"byteOffset":56624
		},
		{
			"buffer":0,
			"byteLength":1440,
			"byteOffset":58544
		},
		{
			"buffer":0,
			"byteLength":1440,
			"byteOffset":59984
		},
		{
			"buffer":0,
			"byteLength":1920,
			"byteOffset":61424
		},
		{
			"buffer":0,
			"byteLength":1440,
			"byteOffset":63344
		},
		{
			"buffer":0,
			"byteLength":1440,
			"byteOffset":64784
		},
		{
			"buffer":0,
			"byteLength":1920,
			"byteOffset":66224
		},
		{
			"buffer":0,
			"byteLength":1440,
			"byteOffset":68144
		},
		{
			"buffer":0,
			"byteLength":1440,
			"byteOffset":69584
		},
		{
			"buffer":0,
			"byteLength":1920,
			"byteOffset":71024
		},
		{
			"buffer":0,
			"byteLength":1440,
			"byteOffset":72944
		},
		{
			"buffer":0,
			"byteLength":1440,
			"byteOffset":74384
		},
		{
			"buffer":0,
			"byteLength":1920,
			"byteOffset":75824
		},
		{
			"buffer":0,
			"byteLength":1440,
			"byteOffset":77744
		},
		{
			"buffer":0,
			"byteLength":1440,
			"byteOffset":79184
		},
		{
			"buffer":0,
			"byteLength":1920,
			"byteOffset":80624
		},
		{
			"buffer":0,
			"byteLength":1440,
			"byteOffset":82544
		},
		{
			"buffer":0,
			"byteLength":1440,
			"byteOffset":83984
		},
		{
			"buffer":0,
			"byteLength":1920,
			"byteOffset":85424
		},
		{
			"buffer":0,
			"byteLength":1440,
			"byteOffset":87344
		},
		{
			"buffer":0,
			"byteLength":1440,
			"byteOffset":88784
		},
		{
			"buffer":0,
			"byteLength":1920,
			"byteOffset":90224
		},
		{
			"buffer":0,
			"byteLength":1440,
			"byteOffset":92144
		}
	],
	"samplers":[
		{
			"magFilter":9729,
			"minFilter":9987
		}
	],
	"buffers":[
		{
			"byteLength":93584,
			"uri":"player.bin"
		}
	]
}
