# Blender v3.5.0 OBJ File: ''
# www.blender.org
mtllib bullet.mtl
o Cube
v -0.500000 0.500000 0.500000
v -0.500000 -0.500000 0.500000
v -0.500000 0.500000 -0.500000
v -0.500000 -0.500000 -0.500000
v 0.500000 0.500000 0.500000
v 0.500000 -0.500000 0.500000
v 0.500000 0.500000 -0.500000
v 0.500000 -0.500000 -0.500000
v 0.609568 -0.609568 0.000000
v -0.000000 -0.609568 0.609568
v -0.609568 0.000000 0.609568
v 0.609568 -0.000000 -0.609568
v -0.609568 0.000000 -0.609568
v 0.609568 -0.000000 0.609568
v 0.000000 0.609568 -0.609568
v -0.609568 0.609568 -0.000000
v 0.000000 -0.609568 -0.609568
v 0.609568 0.609568 0.000000
v -0.000000 0.609568 0.609568
v -0.609568 -0.609568 -0.000000
v 0.000000 0.839506 0.000000
v -0.000000 0.000000 -0.839506
v 0.839506 0.000000 0.000000
v 0.000000 -0.839506 -0.000000
v -0.839506 0.000000 0.000000
v -0.000000 0.000000 0.839506
vt 0.688802 0.648163
vt 0.810106 0.533799
vt 0.810304 0.705680
vt 0.726582 0.358745
vt 0.666667 0.500436
vt 1.000000 0.406030
vt 1.000000 0.558083
vt 0.962220 0.695448
vt 1.000000 0.053190
vt 0.810106 0.180960
vt 0.856363 0.000000
vt 0.962220 0.342608
vt 1.000000 0.205243
vt 0.688802 0.295323
vt 0.666667 0.147597
vt 0.726582 0.005905
vt 0.666667 0.406030
vt 0.476773 0.533799
vt 0.523029 0.352840
vt 0.628887 0.695448
vt 0.666667 0.558083
vt 0.355469 0.648163
vt 0.333333 0.500436
vt 0.393249 0.358745
vt 0.295554 0.363072
vt 0.143440 0.524720
vt 0.143637 0.352840
vt 0.333333 0.652490
vt 0.333333 0.500436
vt 0.059916 0.699774
vt 0.000000 0.558083
vt 0.022136 0.410356
vt 0.295554 0.010232
vt 0.143440 0.171880
vt 0.143637 0.000000
vt 0.333333 0.299650
vt 0.333333 0.147597
vt 0.059916 0.346934
vt 0.000000 0.205243
vt 0.022136 0.057517
vt 0.628887 0.010232
vt 0.476773 0.171880
vt 0.476971 0.000000
vt 0.666667 0.299650
vt 0.666667 0.147597
vt 0.393249 0.346934
vt 0.333333 0.205243
vt 0.355469 0.057516
vt 0.856363 0.352840
vt 0.810304 0.352840
vt 0.476971 0.705680
vt 0.189696 0.705680
vt 0.189696 0.352840
vt 0.523029 0.352840
vn -0.5773 0.5773 0.5774
vn -0.0000 1.0000 -0.0000
vn -0.7071 0.7071 0.0000
vn 0.5774 0.5773 0.5773
vn 0.0000 0.7071 0.7071
vn 0.5774 0.5773 -0.5773
vn 0.0000 0.7071 -0.7071
vn -0.5773 0.5773 -0.5774
vn -0.5774 -0.5773 -0.5773
vn 0.0000 -0.0000 -1.0000
vn -0.0000 -0.7071 -0.7071
vn -0.5773 0.5774 -0.5773
vn -0.7071 0.0000 -0.7071
vn 0.5773 0.5774 -0.5773
vn 0.7071 0.0000 -0.7071
vn 0.5774 -0.5773 -0.5773
vn 0.5773 -0.5773 -0.5774
vn 1.0000 -0.0000 0.0000
vn 0.7071 -0.7071 -0.0000
vn 0.5773 0.5774 0.5773
vn 0.7071 0.0000 0.7071
vn 0.5773 -0.5773 0.5774
vn 0.0000 -1.0000 -0.0000
vn -0.5774 -0.5773 0.5773
vn -0.0000 -0.7071 0.7071
vn -0.5773 -0.5773 0.5774
vn -1.0000 -0.0000 -0.0000
vn -0.7071 -0.7071 0.0000
vn -0.5773 0.5774 0.5773
vn -0.7071 0.0000 0.7071
vn -0.5773 -0.5773 -0.5774
vn 0.5774 -0.5773 0.5773
vn -0.0000 -0.0000 1.0000
vn -0.5774 0.5773 0.5773
vn 0.5773 0.5773 0.5774
vn 0.7071 0.7071 0.0000
vn 0.5773 0.5773 -0.5774
vn -0.5774 0.5773 -0.5773
vn -0.5773 -0.5774 -0.5773
vn 0.5773 -0.5774 -0.5773
vn 0.5773 -0.5774 0.5773
vn -0.5773 -0.5774 0.5773
usemtl Material
s off
f 1/1/1 21/2/2 16/3/3
f 5/4/4 21/2/2 19/5/5
f 21/2/2 7/6/6 15/7/7
f 21/2/2 3/8/8 16/3/3
f 4/9/9 22/10/10 17/11/11
f 3/12/12 22/10/10 13/13/13
f 22/10/10 7/14/14 12/15/15
f 22/10/10 8/16/16 17/11/11
f 8/17/17 23/18/18 9/19/19
f 7/20/14 23/18/18 12/21/15
f 23/18/18 5/22/20 14/23/21
f 23/18/18 6/24/22 9/19/19
f 6/25/22 24/26/23 9/27/19
f 2/28/24 24/26/23 10/29/25
f 24/26/23 4/30/9 17/31/11
f 24/26/23 8/32/17 9/27/19
f 2/33/26 25/34/27 20/35/28
f 1/36/29 25/34/27 11/37/30
f 25/34/27 3/38/12 13/39/13
f 25/34/27 4/40/31 20/35/28
f 6/41/32 26/42/33 10/43/25
f 5/44/20 26/42/33 14/45/21
f 26/42/33 1/46/29 11/47/30
f 26/42/33 2/48/24 10/43/25
f 1/1/34 19/5/5 21/2/2
f 5/4/35 18/49/36 21/2/2
f 21/2/2 18/49/36 7/6/37
f 21/2/2 15/7/7 3/8/38
f 4/9/39 13/13/13 22/10/10
f 3/12/38 15/50/7 22/10/10
f 22/10/10 15/50/7 7/14/6
f 22/10/10 12/15/15 8/16/40
f 8/17/40 12/21/15 23/18/18
f 7/20/37 18/51/36 23/18/18
f 23/18/18 18/51/36 5/22/35
f 23/18/18 14/23/21 6/24/41
f 6/25/32 10/29/25 24/26/23
f 2/28/26 20/52/28 24/26/23
f 24/26/23 20/52/28 4/30/31
f 24/26/23 17/31/11 8/32/16
f 2/33/42 11/37/30 25/34/27
f 1/36/1 16/53/3 25/34/27
f 25/34/27 16/53/3 3/38/8
f 25/34/27 13/39/13 4/40/39
f 6/41/41 14/45/21 26/42/33
f 5/44/4 19/54/5 26/42/33
f 26/42/33 19/54/5 1/46/34
f 26/42/33 11/47/30 2/48/42
