# Blender v3.5.0 OBJ File: ''
# www.blender.org
mtllib lowSphere.mtl
o 立方体
v 0.500000 -0.500000 0.500000
v 0.500000 0.500000 0.500000
v -0.500000 -0.500000 0.500000
v -0.500000 0.500000 0.500000
v 0.500000 -0.500000 -0.500000
v 0.500000 0.500000 -0.500000
v -0.500000 -0.500000 -0.500000
v -0.500000 0.500000 -0.500000
v -0.296650 -0.572933 0.572933
v -0.000000 -0.609568 0.609568
v 0.296650 -0.572933 0.572933
v 0.572933 -0.296650 0.572933
v 0.609568 -0.000000 0.609568
v 0.572933 0.296650 0.572933
v 0.296650 0.572933 0.572933
v 0.000000 0.609568 0.609568
v -0.296650 0.572933 0.572933
v -0.572933 0.296650 0.572933
v -0.609568 -0.000000 0.609568
v -0.572933 -0.296650 0.572933
v -0.572933 -0.572933 -0.296650
v -0.609568 -0.609568 -0.000000
v -0.572933 -0.572933 0.296650
v -0.572933 0.572933 0.296650
v -0.609568 0.609568 0.000000
v -0.572933 0.572933 -0.296650
v -0.572933 0.296650 -0.572933
v -0.609568 -0.000000 -0.609568
v -0.572933 -0.296650 -0.572933
v 0.296650 -0.572933 -0.572933
v 0.000000 -0.609568 -0.609568
v -0.296650 -0.572933 -0.572933
v -0.296650 0.572933 -0.572933
v 0.000000 0.609568 -0.609568
v 0.296650 0.572933 -0.572933
v 0.572933 0.296650 -0.572933
v 0.609568 -0.000000 -0.609568
v 0.572933 -0.296650 -0.572933
v 0.572933 -0.572933 0.296650
v 0.609568 -0.609568 0.000000
v 0.572933 -0.572933 -0.296650
v 0.572933 0.572933 -0.296650
v 0.609568 0.609568 0.000000
v 0.572933 0.572933 0.296650
v 0.316157 -0.316157 0.728990
v 0.333140 -0.000000 0.781829
v 0.316157 0.316157 0.728990
v -0.000000 -0.333140 0.781829
v 0.000000 0.000000 0.839506
v 0.000000 0.333140 0.781829
v -0.316157 -0.316157 0.728990
v -0.333140 0.000000 0.781829
v -0.316157 0.316157 0.728990
v -0.728990 -0.316157 0.316157
v -0.781829 -0.000000 0.333140
v -0.728990 0.316157 0.316157
v -0.781829 -0.333140 -0.000000
v -0.839506 0.000000 -0.000000
v -0.781829 0.333140 0.000000
v -0.728990 -0.316157 -0.316157
v -0.781829 0.000000 -0.333140
v -0.728990 0.316157 -0.316157
v -0.316157 -0.316157 -0.728990
v -0.333140 -0.000000 -0.781829
v -0.316157 0.316157 -0.728990
v 0.000000 -0.333140 -0.781829
v 0.000000 0.000000 -0.839506
v -0.000000 0.333140 -0.781829
v 0.316157 -0.316157 -0.728990
v 0.333140 0.000000 -0.781829
v 0.316157 0.316157 -0.728990
v 0.728990 -0.316157 -0.316157
v 0.781829 -0.000000 -0.333140
v 0.728990 0.316157 -0.316157
v 0.781829 -0.333140 0.000000
v 0.839506 0.000000 0.000000
v 0.781829 0.333140 -0.000000
v 0.728990 -0.316157 0.316157
v 0.781829 0.000000 0.333140
v 0.728990 0.316157 0.316157
v -0.316157 -0.728990 0.316157
v -0.333140 -0.781829 0.000000
v -0.316157 -0.728990 -0.316157
v 0.000000 -0.781829 0.333140
v 0.000000 -0.839506 0.000000
v -0.000000 -0.781829 -0.333140
v 0.316157 -0.728990 0.316157
v 0.333140 -0.781829 -0.000000
v 0.316157 -0.728990 -0.316157
v -0.316157 0.728990 -0.316157
v -0.333140 0.781829 -0.000000
v -0.316157 0.728990 0.316157
v 0.000000 0.781829 -0.333140
v 0.000000 0.839506 0.000000
v -0.000000 0.781829 0.333140
v 0.316157 0.728990 -0.316157
v 0.333140 0.781829 0.000000
v 0.316157 0.728990 0.316157
vt 0.256428 0.709796
vt 0.155992 0.635575
vt 0.249756 0.626203
vt 0.083542 0.721553
vt 0.168008 0.723216
vt 0.238703 0.537419
vt 0.065817 0.549177
vt 0.149330 0.541579
vt 0.322479 0.743879
vt 0.333333 0.691105
vt 0.265538 0.771560
vt 0.103319 0.782593
vt 0.183754 0.789082
vt 0.961113 0.471267
vt 0.912963 0.402131
vt 0.988450 0.438825
vt 0.900083 0.459184
vt 0.824250 0.394541
vt 0.067583 0.638592
vt 0.003402 0.550672
vt 0.021028 0.489861
vt 0.071197 0.470216
vt 0.149579 0.456731
vt 0.233416 0.459184
vt 0.294446 0.471267
vt 0.316702 0.529364
vt 0.333333 0.611572
vt 0.750209 0.327012
vt 0.822658 0.241034
vt 0.834675 0.328674
vt 0.732483 0.154636
vt 0.734249 0.244051
vt 0.923095 0.315255
vt 0.905369 0.142878
vt 0.916422 0.231662
vt 0.246296 0.402131
vt 0.321783 0.438825
vt 0.157583 0.394541
vt 0.670068 0.156130
vt 0.666667 0.239700
vt 0.687695 0.095320
vt 0.737864 0.075675
vt 0.815997 0.147038
vt 0.900083 0.064643
vt 0.961113 0.076726
vt 0.983368 0.134823
vt 1.000000 0.217031
vt 1.000000 0.296564
vt 0.989145 0.349338
vt 0.932204 0.377019
vt 0.850421 0.394541
vt 0.769986 0.388052
vt 0.083542 0.067529
vt 0.155992 0.153507
vt 0.067583 0.150490
vt 0.256428 0.079286
vt 0.168008 0.065867
vt 0.065817 0.239905
vt 0.238703 0.251663
vt 0.149331 0.247503
vt 0.627780 0.712356
vt 0.579630 0.781492
vt 0.566750 0.724439
vt 0.103319 0.006489
vt 0.265538 0.017522
vt 0.183754 0.000000
vt 0.322479 0.045204
vt 0.333333 0.097977
vt 0.249756 0.162879
vt 0.316702 0.259718
vt 0.294446 0.317815
vt 0.233416 0.329898
vt 0.149579 0.332351
vt 0.071197 0.318866
vt 0.021028 0.299221
vt 0.003402 0.238411
vt 0.000000 0.154841
vt 0.490917 0.789082
vt 0.482912 0.726892
vt 0.399150 0.239905
vt 0.489325 0.153507
vt 0.482664 0.247503
vt 0.416875 0.067529
vt 0.400916 0.150490
vt 0.572036 0.251663
vt 0.589761 0.079286
vt 0.583089 0.162879
vt 0.354362 0.299221
vt 0.404531 0.318866
vt 0.336735 0.238411
vt 0.157584 0.394541
vt 0.246296 0.386951
vt 0.436652 0.006489
vt 0.501341 0.065867
vt 0.598871 0.017522
vt 0.655812 0.045204
vt 0.666667 0.097977
vt 0.666667 0.177510
vt 0.650035 0.259718
vt 0.627779 0.317815
vt 0.566750 0.329898
vt 0.482912 0.332351
vt 0.589761 0.473827
vt 0.489325 0.548048
vt 0.501341 0.460408
vt 0.572036 0.646204
vt 0.583089 0.557420
vt 0.416875 0.462070
vt 0.399150 0.634446
vt 0.400916 0.545031
vt 0.655812 0.439745
vt 0.598871 0.412063
vt 0.666667 0.492518
vt 0.650035 0.654259
vt 0.666667 0.572051
vt 0.482664 0.642044
vt 0.404531 0.713407
vt 0.354362 0.693762
vt 0.336735 0.632952
vt 0.333333 0.549382
vt 0.490917 0.394541
vt 0.579630 0.386951
vt 0.655117 0.350258
vt 0.436652 0.401031
vt 0.517088 0.394541
vt 0.750209 0.721553
vt 0.822658 0.635575
vt 0.834675 0.723216
vt 0.732483 0.549177
vt 0.734249 0.638592
vt 0.923095 0.709796
vt 0.905369 0.537419
vt 0.916422 0.626203
vt 0.912963 0.007590
vt 0.988450 0.044284
vt 0.824250 0.000000
vt 0.670068 0.550672
vt 0.666667 0.634241
vt 0.687695 0.489861
vt 0.737864 0.470216
vt 0.815997 0.541579
vt 0.983368 0.529364
vt 1.000000 0.611572
vt 1.000000 0.691105
vt 0.989145 0.743879
vt 0.932204 0.771560
vt 0.850421 0.789082
vt 0.769986 0.782593
vt 0.816246 0.456731
vt 0.000000 0.634241
vt 0.816246 0.062190
vt 0.655117 0.744798
vt 0.333333 0.177510
vt 0.333333 0.154841
vt 0.321784 0.350257
vt 0.517088 0.000000
vn 0.1713 -0.1681 0.9708
vn 0.1681 0.1713 0.9708
vn -0.1713 -0.1681 0.9708
vn -0.1681 0.1713 0.9708
vn 0.4446 -0.4896 0.7501
vn 0.5213 -0.1678 0.8367
vn 0.5214 0.1677 0.8367
vn 0.4896 0.4446 0.7501
vn 0.1678 0.5213 0.8367
vn -0.1678 0.5213 0.8367
vn -0.4896 0.4446 0.7501
vn -0.5214 0.1677 0.8367
vn -0.5213 -0.1678 0.8367
vn -0.4446 -0.4896 0.7501
vn -0.1677 -0.5214 0.8367
vn 0.1677 -0.5214 0.8367
vn -0.9708 -0.1681 0.1713
vn -0.9708 0.1713 0.1681
vn -0.9708 -0.1681 -0.1713
vn -0.9708 0.1713 -0.1681
vn -0.7501 -0.4896 0.4446
vn -0.8367 -0.1678 0.5213
vn -0.8367 0.1677 0.5214
vn -0.7501 0.4446 0.4896
vn -0.8367 0.5213 0.1678
vn -0.8367 0.5213 -0.1678
vn -0.7501 0.4446 -0.4896
vn -0.8367 0.1677 -0.5214
vn -0.8367 -0.1678 -0.5213
vn -0.7501 -0.4896 -0.4446
vn -0.8367 -0.5214 -0.1677
vn -0.8367 -0.5214 0.1677
vn -0.1713 -0.1681 -0.9708
vn -0.1681 0.1713 -0.9708
vn 0.1713 -0.1681 -0.9708
vn 0.1681 0.1713 -0.9708
vn -0.4446 -0.4896 -0.7501
vn -0.5213 -0.1678 -0.8367
vn -0.5214 0.1677 -0.8367
vn -0.4896 0.4446 -0.7501
vn -0.1678 0.5213 -0.8367
vn 0.1678 0.5213 -0.8367
vn 0.4896 0.4446 -0.7501
vn 0.5214 0.1677 -0.8367
vn 0.5213 -0.1678 -0.8367
vn 0.4446 -0.4896 -0.7501
vn 0.1677 -0.5214 -0.8367
vn -0.1677 -0.5214 -0.8367
vn 0.9708 -0.1681 -0.1713
vn 0.9708 0.1713 -0.1681
vn 0.9708 -0.1681 0.1713
vn 0.9708 0.1713 0.1681
vn 0.7501 -0.4896 -0.4446
vn 0.8367 -0.1678 -0.5213
vn 0.8367 0.1677 -0.5214
vn 0.7501 0.4446 -0.4896
vn 0.8367 0.5213 -0.1678
vn 0.8367 0.5213 0.1678
vn 0.7501 0.4446 0.4896
vn 0.8367 0.1677 0.5214
vn 0.8367 -0.1678 0.5213
vn 0.7501 -0.4896 0.4446
vn 0.8367 -0.5214 0.1677
vn 0.8367 -0.5214 -0.1677
vn -0.1713 -0.9708 0.1681
vn -0.1681 -0.9708 -0.1713
vn 0.1713 -0.9708 0.1681
vn 0.1681 -0.9708 -0.1713
vn -0.4446 -0.7501 0.4896
vn -0.5213 -0.8367 0.1678
vn -0.5214 -0.8367 -0.1677
vn -0.4896 -0.7501 -0.4446
vn -0.1678 -0.8367 -0.5213
vn 0.1678 -0.8367 -0.5213
vn 0.4896 -0.7501 -0.4446
vn 0.5214 -0.8367 -0.1677
vn 0.5213 -0.8367 0.1678
vn 0.4446 -0.7501 0.4896
vn 0.1677 -0.8367 0.5214
vn -0.1677 -0.8367 0.5214
vn -0.1713 0.9708 -0.1681
vn -0.1681 0.9708 0.1713
vn 0.1713 0.9708 -0.1681
vn 0.1681 0.9708 0.1713
vn -0.4446 0.7501 -0.4896
vn -0.5213 0.8367 -0.1678
vn -0.5214 0.8367 0.1677
vn -0.4896 0.7501 0.4446
vn -0.1678 0.8367 0.5213
vn 0.1678 0.8367 0.5213
vn 0.4896 0.7501 0.4446
vn 0.5214 0.8367 0.1677
vn 0.5213 0.8367 -0.1678
vn 0.4446 0.7501 -0.4896
vn 0.1677 0.8367 -0.5214
vn -0.1677 0.8367 -0.5214
vn 0.1681 -0.1713 0.9708
vn 0.1713 0.1681 0.9708
vn -0.1681 -0.1713 0.9708
vn -0.1713 0.1681 0.9708
vn 0.4896 -0.4446 0.7501
vn 0.5214 -0.1677 0.8367
vn 0.5213 0.1678 0.8367
vn 0.4446 0.4896 0.7501
vn 0.1677 0.5214 0.8367
vn -0.1677 0.5214 0.8367
vn -0.4446 0.4896 0.7501
vn -0.5213 0.1678 0.8367
vn -0.5214 -0.1677 0.8367
vn -0.4896 -0.4446 0.7501
vn -0.1678 -0.5213 0.8367
vn 0.1678 -0.5213 0.8367
vn -0.9708 -0.1713 0.1681
vn -0.9708 0.1681 0.1713
vn -0.9708 -0.1713 -0.1681
vn -0.9708 0.1681 -0.1713
vn -0.7501 -0.4446 0.4896
vn -0.8367 -0.1677 0.5214
vn -0.8367 0.1678 0.5213
vn -0.7501 0.4896 0.4446
vn -0.8367 0.5214 0.1677
vn -0.8367 0.5214 -0.1677
vn -0.7501 0.4896 -0.4446
vn -0.8367 0.1678 -0.5213
vn -0.8367 -0.1677 -0.5214
vn -0.7501 -0.4446 -0.4896
vn -0.8367 -0.5213 -0.1678
vn -0.8367 -0.5213 0.1678
vn -0.1681 -0.1713 -0.9708
vn -0.1713 0.1681 -0.9708
vn 0.1681 -0.1713 -0.9708
vn 0.1713 0.1681 -0.9708
vn -0.4896 -0.4446 -0.7501
vn -0.5214 -0.1677 -0.8367
vn -0.5213 0.1678 -0.8367
vn -0.4446 0.4896 -0.7501
vn -0.1677 0.5214 -0.8367
vn 0.1677 0.5214 -0.8367
vn 0.4446 0.4896 -0.7501
vn 0.5213 0.1678 -0.8367
vn 0.5214 -0.1677 -0.8367
vn 0.4896 -0.4446 -0.7501
vn 0.1678 -0.5213 -0.8367
vn -0.1678 -0.5213 -0.8367
vn 0.9708 -0.1713 -0.1681
vn 0.9708 0.1681 -0.1713
vn 0.9708 -0.1713 0.1681
vn 0.9708 0.1681 0.1713
vn 0.7501 -0.4446 -0.4896
vn 0.8367 -0.1677 -0.5214
vn 0.8367 0.1678 -0.5213
vn 0.7501 0.4896 -0.4446
vn 0.8367 0.5214 -0.1677
vn 0.8367 0.5214 0.1677
vn 0.7501 0.4896 0.4446
vn 0.8367 0.1678 0.5213
vn 0.8367 -0.1677 0.5214
vn 0.7501 -0.4446 0.4896
vn 0.8367 -0.5213 0.1678
vn 0.8367 -0.5213 -0.1678
vn -0.1681 -0.9708 0.1713
vn -0.1713 -0.9708 -0.1681
vn 0.1681 -0.9708 0.1713
vn 0.1713 -0.9708 -0.1681
vn -0.4896 -0.7501 0.4446
vn -0.5214 -0.8367 0.1677
vn -0.5213 -0.8367 -0.1678
vn -0.4446 -0.7501 -0.4896
vn -0.1677 -0.8367 -0.5214
vn 0.1677 -0.8367 -0.5214
vn 0.4446 -0.7501 -0.4896
vn 0.5213 -0.8367 -0.1678
vn 0.5214 -0.8367 0.1677
vn 0.4896 -0.7501 0.4446
vn 0.1678 -0.8367 0.5213
vn -0.1678 -0.8367 0.5213
vn -0.1681 0.9708 -0.1713
vn -0.1713 0.9708 0.1681
vn 0.1681 0.9708 -0.1713
vn 0.1713 0.9708 0.1681
vn -0.4896 0.7501 -0.4446
vn -0.5214 0.8367 -0.1677
vn -0.5213 0.8367 0.1678
vn -0.4446 0.7501 0.4896
vn -0.1677 0.8367 0.5214
vn 0.1677 0.8367 0.5214
vn 0.4446 0.7501 0.4896
vn 0.5213 0.8367 0.1678
vn 0.5214 0.8367 -0.1677
vn 0.4896 0.7501 -0.4446
vn 0.1678 0.8367 -0.5213
vn -0.1678 0.8367 -0.5213
usemtl Material
s off
f 45/1/1 49/2/1 48/3/1
f 47/4/2 49/2/2 46/5/2
f 49/2/3 51/6/3 48/3/3
f 49/2/4 53/7/4 52/8/4
f 1/9/5 45/1/5 11/10/5
f 12/11/6 46/5/6 45/1/6
f 14/12/7 46/5/7 13/13/7
f 2/14/8 47/15/8 14/16/8
f 15/17/9 50/18/9 47/15/9
f 50/19/10 17/20/10 53/7/10
f 53/7/11 4/21/11 18/22/11
f 52/8/12 18/22/12 19/23/12
f 52/8/13 20/24/13 51/6/13
f 51/6/14 3/25/14 9/26/14
f 48/3/15 9/26/15 10/27/15
f 11/10/16 48/3/16 10/27/16
f 54/28/17 58/29/17 57/30/17
f 56/31/18 58/29/18 55/32/18
f 58/29/19 60/33/19 57/30/19
f 58/29/20 62/34/20 61/35/20
f 3/25/21 54/36/21 23/37/21
f 20/24/22 55/38/22 54/36/22
f 18/39/23 55/32/23 19/40/23
f 4/41/24 56/31/24 18/39/24
f 24/42/25 59/43/25 56/31/25
f 59/43/26 26/44/26 62/34/26
f 62/34/27 8/45/27 27/46/27
f 61/35/28 27/46/28 28/47/28
f 61/35/29 29/48/29 60/33/29
f 60/33/30 7/49/30 21/50/30
f 57/30/31 21/50/31 22/51/31
f 23/52/32 57/30/32 22/51/32
f 63/53/33 67/54/33 66/55/33
f 65/56/34 67/54/34 64/57/34
f 67/54/35 69/58/35 66/55/35
f 67/54/36 71/59/36 70/60/36
f 7/61/37 63/62/37 32/63/37
f 29/64/38 64/57/38 63/53/38
f 27/65/39 64/57/39 28/66/39
f 8/67/40 65/56/40 27/65/40
f 33/68/41 68/69/41 65/56/41
f 68/69/42 35/70/42 71/59/42
f 71/59/43 6/71/43 36/72/43
f 70/60/44 36/72/44 37/73/44
f 70/60/45 38/74/45 69/58/45
f 69/58/46 5/75/46 30/76/46
f 66/55/47 30/76/47 31/77/47
f 32/63/48 66/78/48 31/79/48
f 72/80/49 76/81/49 75/82/49
f 74/83/50 76/81/50 73/84/50
f 76/81/51 78/85/51 75/82/51
f 76/81/52 80/86/52 79/87/52
f 5/88/53 72/80/53 41/89/53
f 38/90/54 73/84/54 72/80/54
f 36/72/55 73/91/55 37/73/55
f 6/71/56 74/92/56 36/72/56
f 42/93/57 77/94/57 74/83/57
f 77/94/58 44/95/58 80/86/58
f 80/86/59 2/96/59 14/97/59
f 79/87/60 14/97/60 13/98/60
f 79/87/61 12/99/61 78/85/61
f 78/85/62 1/100/62 39/101/62
f 75/82/63 39/101/63 40/102/63
f 41/89/64 75/82/64 40/102/64
f 81/103/65 85/104/65 84/105/65
f 83/106/66 85/104/66 82/107/66
f 85/104/67 87/108/67 84/105/67
f 85/104/68 89/109/68 88/110/68
f 3/111/69 81/103/69 9/112/69
f 23/113/70 82/107/70 81/103/70
f 21/114/71 82/107/71 22/115/71
f 7/61/72 83/106/72 21/114/72
f 32/63/73 86/116/73 83/106/73
f 86/116/74 30/117/74 89/109/74
f 89/109/75 5/118/75 41/119/75
f 88/110/76 41/119/76 40/120/76
f 88/121/77 39/101/77 87/122/77
f 87/122/78 1/100/78 11/123/78
f 84/105/79 11/124/79 10/125/79
f 9/112/80 84/105/80 10/125/80
f 90/126/81 94/127/81 93/128/81
f 92/129/82 94/127/82 91/130/82
f 94/127/83 96/131/83 93/128/83
f 94/127/84 98/132/84 97/133/84
f 8/45/85 90/134/85 33/135/85
f 26/44/86 91/136/86 90/134/86
f 24/137/87 91/130/87 25/138/87
f 4/139/88 92/129/88 24/137/88
f 17/140/89 95/141/89 92/129/89
f 95/141/90 15/17/90 98/132/90
f 98/132/91 2/14/91 44/142/91
f 97/133/92 44/142/92 43/143/92
f 97/133/93 42/144/93 96/131/93
f 96/131/94 6/145/94 35/146/94
f 93/128/95 35/146/95 34/147/95
f 33/148/96 93/128/96 34/147/96
f 45/1/97 46/5/97 49/2/97
f 47/4/98 50/19/98 49/2/98
f 49/2/99 52/8/99 51/6/99
f 49/2/100 50/19/100 53/7/100
f 1/9/101 12/11/101 45/1/101
f 12/11/102 13/13/102 46/5/102
f 14/12/103 47/4/103 46/5/103
f 2/14/104 15/17/104 47/15/104
f 15/17/105 16/149/105 50/18/105
f 50/19/106 16/150/106 17/20/106
f 53/7/107 17/20/107 4/21/107
f 52/8/108 53/7/108 18/22/108
f 52/8/109 19/23/109 20/24/109
f 51/6/110 20/24/110 3/25/110
f 48/3/111 51/6/111 9/26/111
f 11/10/112 45/1/112 48/3/112
f 54/28/113 55/32/113 58/29/113
f 56/31/114 59/43/114 58/29/114
f 58/29/115 61/35/115 60/33/115
f 58/29/116 59/43/116 62/34/116
f 3/25/117 20/24/117 54/36/117
f 20/24/118 19/23/118 55/38/118
f 18/39/119 56/31/119 55/32/119
f 4/41/120 24/42/120 56/31/120
f 24/42/121 25/151/121 59/43/121
f 59/43/122 25/151/122 26/44/122
f 62/34/123 26/44/123 8/45/123
f 61/35/124 62/34/124 27/46/124
f 61/35/125 28/47/125 29/48/125
f 60/33/126 29/48/126 7/49/126
f 57/30/127 60/33/127 21/50/127
f 23/52/128 54/28/128 57/30/128
f 63/53/129 64/57/129 67/54/129
f 65/56/130 68/69/130 67/54/130
f 67/54/131 70/60/131 69/58/131
f 67/54/132 68/69/132 71/59/132
f 7/61/133 29/152/133 63/62/133
f 29/64/134 28/66/134 64/57/134
f 27/65/135 65/56/135 64/57/135
f 8/67/136 33/68/136 65/56/136
f 33/68/137 34/153/137 68/69/137
f 68/69/138 34/153/138 35/70/138
f 71/59/139 35/70/139 6/71/139
f 70/60/140 71/59/140 36/72/140
f 70/60/141 37/73/141 38/74/141
f 69/58/142 38/74/142 5/75/142
f 66/55/143 69/58/143 30/76/143
f 32/63/144 63/62/144 66/78/144
f 72/80/145 73/84/145 76/81/145
f 74/83/146 77/94/146 76/81/146
f 76/81/147 79/87/147 78/85/147
f 76/81/148 77/94/148 80/86/148
f 5/88/149 38/90/149 72/80/149
f 38/90/150 37/154/150 73/84/150
f 36/72/151 74/92/151 73/91/151
f 6/71/152 42/155/152 74/92/152
f 42/93/153 43/156/153 77/94/153
f 77/94/154 43/156/154 44/95/154
f 80/86/155 44/95/155 2/96/155
f 79/87/156 80/86/156 14/97/156
f 79/87/157 13/98/157 12/99/157
f 78/85/158 12/99/158 1/100/158
f 75/82/159 78/85/159 39/101/159
f 41/89/160 72/80/160 75/82/160
f 81/103/161 82/107/161 85/104/161
f 83/106/162 86/116/162 85/104/162
f 85/104/163 88/110/163 87/108/163
f 85/104/164 86/116/164 89/109/164
f 3/111/165 23/113/165 81/103/165
f 23/113/166 22/115/166 82/107/166
f 21/114/167 83/106/167 82/107/167
f 7/61/168 32/63/168 83/106/168
f 32/63/169 31/79/169 86/116/169
f 86/116/170 31/79/170 30/117/170
f 89/109/171 30/117/171 5/118/171
f 88/110/172 89/109/172 41/119/172
f 88/121/173 40/102/173 39/101/173
f 87/122/174 39/101/174 1/100/174
f 84/105/175 87/108/175 11/124/175
f 9/112/176 81/103/176 84/105/176
f 90/126/177 91/130/177 94/127/177
f 92/129/178 95/141/178 94/127/178
f 94/127/179 97/133/179 96/131/179
f 94/127/180 95/141/180 98/132/180
f 8/45/181 26/44/181 90/134/181
f 26/44/182 25/151/182 91/136/182
f 24/137/183 92/129/183 91/130/183
f 4/139/184 17/140/184 92/129/184
f 17/140/185 16/149/185 95/141/185
f 95/141/186 16/149/186 15/17/186
f 98/132/187 15/17/187 2/14/187
f 97/133/188 98/132/188 44/142/188
f 97/133/189 43/143/189 42/144/189
f 96/131/190 42/144/190 6/145/190
f 93/128/191 96/131/191 35/146/191
f 33/148/192 90/126/192 93/128/192
