# Blender v3.5.0 OBJ File: ''
# www.blender.org
mtllib float_Head.mtl
o Cube.001
v -0.214502 1.029105 0.214502
v 0.000000 1.104086 -0.000000
v -0.226024 1.064954 -0.000000
v 0.214502 1.029105 0.214502
v 0.000000 1.064954 0.226024
v -0.214502 1.029105 -0.214502
v 0.214502 1.029105 -0.214502
v 0.000000 1.064954 -0.226024
v -0.339233 0.873743 0.339233
v -0.388715 0.923225 0.201267
v -0.201267 0.923225 0.388715
v 0.201267 0.923225 0.388715
v 0.000000 0.948081 0.413571
v 0.339233 0.873743 0.339233
v 0.388715 0.923225 0.201267
v 0.226024 1.064954 -0.000000
v 0.388715 0.923225 -0.201267
v 0.339233 0.873743 -0.339233
v 0.201267 0.923225 -0.388715
v 0.000000 0.948081 -0.413571
v -0.201267 0.923225 -0.388715
v -0.339233 0.873743 -0.339233
v -0.388715 0.923225 -0.201267
v -0.413571 0.948081 -0.000000
v -0.530444 0.534510 -0.226024
v -0.597962 0.171957 -0.000000
v -0.569576 0.534510 -0.000000
v -0.214502 0.749012 -0.494595
v 0.000000 0.534510 -0.569576
v -0.226024 0.534510 -0.530444
v 0.413571 0.534510 0.413571
v 0.556880 0.171957 0.237289
v 0.530444 0.534510 0.226024
v 0.214502 0.749012 -0.494595
v 0.226024 0.534510 -0.530444
v -0.388715 0.735777 -0.388715
v -0.413571 0.534510 -0.413571
v 0.000000 0.760534 -0.530444
v 0.388715 0.735777 -0.388715
v 0.413571 0.534510 -0.413571
v -0.237289 0.171957 -0.556880
v -0.434182 0.171957 -0.434182
v 0.494595 0.749012 -0.214502
v 0.569576 0.534510 -0.000000
v 0.530444 0.534510 -0.226024
v 0.237289 0.171957 0.556880
v 0.434182 0.171957 0.434182
v 0.494595 0.749012 0.214502
v 0.530444 0.760534 -0.000000
v 0.388715 0.735777 0.388715
v 0.597962 0.171957 -0.000000
v 0.556880 0.171957 -0.237289
v 0.237289 0.171957 -0.556880
v -0.413571 0.534510 0.413571
v -0.237289 0.171957 0.556880
v -0.226024 0.534510 0.530444
v -0.556880 0.171957 0.237289
v -0.434182 0.171957 0.434182
v 0.434182 0.171957 -0.434182
v 0.000000 0.171957 -0.597962
v -0.494595 0.749012 0.214502
v -0.530444 0.534510 0.226024
v 0.226024 0.534510 0.530444
v 0.000000 0.171957 0.597962
v -0.494595 0.749012 -0.214502
v -0.388715 0.735777 0.388715
v -0.530444 0.760534 -0.000000
v 0.000000 0.534510 0.569576
v 0.214502 0.749012 0.494595
v -0.556880 0.171957 -0.237289
v -0.214502 0.749012 0.494595
v 0.000000 0.760534 0.530444
v -0.647872 -0.631175 -0.254002
v -0.758602 -0.631175 -0.000364
v 0.277201 -0.631175 0.663644
v 0.550911 -0.631175 0.550496
v -0.290773 -0.631175 -0.648943
v -0.550809 -0.631175 -0.551225
v -0.677404 -0.631175 0.003804
v -0.706480 -0.631175 0.300691
v -0.488144 -0.631175 0.512914
v -0.301005 -0.631175 0.706166
v 0.646450 -0.631175 0.274617
v 0.758704 -0.631175 -0.000364
v -0.252694 -0.631175 0.644273
v 0.000051 -0.631175 0.758289
v 0.256779 -0.631175 -0.657415
v 0.000051 -0.631175 -0.759017
v 0.696578 -0.631175 -0.004446
v 0.706582 -0.631175 -0.301420
v -0.001782 -0.631175 0.706105
v 0.301107 -0.631175 0.706166
v 0.516610 -0.631175 0.506465
v 0.706582 -0.631175 0.300691
v -0.524604 -0.631175 -0.487486
v -0.706480 -0.631175 -0.301420
v 0.492301 -0.631175 -0.509724
v 0.301107 -0.631175 -0.706895
v -0.640325 -0.631175 0.278868
v -0.550809 -0.631175 0.550496
v -0.009948 -0.631175 -0.695864
v -0.301005 -0.631175 -0.706895
v 0.640729 -0.631175 -0.283599
v 0.550911 -0.631175 -0.551225
v 0.413571 0.948081 -0.000000
vt 0.173331 0.517764
vt 0.117057 0.565184
vt 0.119031 0.507319
vt 0.165635 0.630921
vt 0.174419 0.573049
vt 0.060507 0.506163
vt 0.052812 0.619320
vt 0.055535 0.560824
vt 0.576232 0.413373
vt 0.544980 0.464958
vt 0.542755 0.426911
vt 0.213282 0.530709
vt 0.206061 0.636884
vt 0.217530 0.583355
vt 0.187943 0.674153
vt 0.153402 0.681257
vt 0.110922 0.626554
vt 0.047540 0.670371
vt 0.009514 0.655805
vt 0.001605 0.615860
vt 0.000000 0.560987
vt 0.008826 0.509685
vt 0.021684 0.476848
vt 0.061486 0.465311
vt 0.116184 0.463085
vt 0.167348 0.476197
vt 0.420059 0.328555
vt 0.469406 0.223881
vt 0.481104 0.319974
vt 0.679331 0.054699
vt 0.733153 0.116371
vt 0.674628 0.113072
vt 0.826137 0.537714
vt 0.781108 0.643174
vt 0.772280 0.546795
vt 0.793397 0.057830
vt 0.794821 0.116371
vt 0.637252 0.052478
vt 0.629457 0.106777
vt 0.652525 0.014126
vt 0.687266 0.004082
vt 0.734935 0.054716
vt 0.794294 0.007020
vt 0.832919 0.019078
vt 0.843960 0.058152
vt 0.849383 0.112813
vt 0.670234 0.210355
vt 0.622812 0.203746
vt 0.652273 0.493111
vt 0.710806 0.551553
vt 0.651974 0.551553
vt 0.073323 0.120506
vt 0.109131 0.228302
vt 0.056393 0.215999
vt 0.766445 0.488595
vt 0.609728 0.491971
vt 0.606006 0.546421
vt 0.622008 0.452332
vt 0.656138 0.440937
vt 0.707936 0.490016
vt 0.763266 0.436699
vt 0.802571 0.445190
vt 0.816628 0.483787
vt 0.716571 0.648170
vt 0.654807 0.648170
vt 0.796417 0.213818
vt 0.294204 0.145963
vt 0.235862 0.242908
vt 0.244273 0.146138
vt 0.586353 0.318463
vt 0.531166 0.219995
vt 0.579900 0.222295
vt 0.606549 0.642782
vt 0.731675 0.213818
vt 0.543257 0.374626
vt 0.539932 0.316272
vt 0.123558 0.132225
vt 0.172550 0.237695
vt 0.429496 0.386282
vt 0.585998 0.373050
vt 0.487790 0.381217
vt 0.436013 0.437848
vt 0.396320 0.431808
vt 0.379842 0.394174
vt 0.367015 0.340937
vt 0.183967 0.141172
vt 0.133365 0.074503
vt 0.405319 0.232890
vt 0.247926 0.087706
vt 0.086287 0.067224
vt 0.103795 0.030048
vt 0.142265 0.023835
vt 0.191056 0.079907
vt 0.249758 0.036224
vt 0.284973 0.050929
vt 0.293892 0.091151
vt 0.375770 0.018725
vt 0.446166 0.004930
vt 0.073239 0.443125
vt 0.000000 0.428944
vt 0.651567 0.427062
vt 0.586353 0.421045
vt 0.444970 0.009879
vt 0.524522 0.000000
vt 0.277420 0.459011
vt 0.227698 0.463085
vt 0.802913 0.858431
vt 0.725943 0.868151
vt 0.214717 0.458448
vt 0.147372 0.456471
vt 0.796813 0.431415
vt 0.724471 0.433824
vt 0.726953 0.864417
vt 0.647581 0.868151
vt 0.147794 0.453872
vt 0.066910 0.444553
vt 0.868998 0.848096
vt 0.807823 0.861813
vt 0.310363 0.032755
vt 0.364856 0.016360
vt 0.865369 0.426908
vt 0.806611 0.433824
vt 0.516860 0.004717
vt 0.586353 0.002918
vt 0.724350 0.431089
vt 0.646519 0.429430
vt 0.654546 0.863959
vt 0.586353 0.861316
vt 0.985313 0.646885
vt 0.998757 0.433824
vt 0.998757 0.650142
vt 0.575381 0.680357
vt 0.585344 0.464958
vt 0.585344 0.683853
vt 1.000000 0.116176
vt 1.000000 0.328318
vt 0.988999 0.116536
vt 0.896729 0.329225
vt 0.913572 0.116176
vt 0.913572 0.331863
vt 0.929929 0.331170
vt 0.946246 0.116176
vt 0.946246 0.334652
vt 0.913572 0.332235
vt 0.929929 0.116176
vt 0.929929 0.336233
vt 0.853698 0.210083
vt 0.879285 0.429085
vt 0.979330 0.929613
vt 0.994260 0.717914
vt 0.994260 0.930417
vt 0.525872 0.894227
vt 0.542737 0.681214
vt 0.542737 0.897557
vt 0.974335 0.331471
vt 0.988999 0.116176
vt 0.988999 0.335100
vt 0.349631 0.245889
vt 0.294204 0.032853
vt 0.979330 0.717914
vt 0.979330 0.930486
vt 0.963744 0.718604
vt 0.525872 0.677178
vt 0.547293 0.464958
vt 0.547293 0.681214
vt 0.879285 0.330793
vt 0.896729 0.116176
vt 0.896729 0.335117
vt 0.288281 0.242724
vt 0.294204 0.462852
vt 0.262338 0.674691
vt 0.262338 0.886597
vt 0.243884 0.674916
vt 0.256410 0.000000
vt 0.101346 0.681257
vt 0.837650 0.633642
vt 0.739805 0.000000
vt 0.708402 0.433824
vt 0.490946 0.437296
vt 0.196829 0.024776
vn -0.3362 0.8797 0.3362
vn -0.0000 1.0000 -0.0000
vn -0.3553 0.9347 0.0000
vn 0.3362 0.8797 0.3362
vn 0.0000 0.9347 0.3553
vn -0.3362 0.8797 -0.3362
vn 0.3362 0.8797 -0.3362
vn 0.0000 0.9347 -0.3553
vn -0.5774 0.5773 0.5773
vn -0.3362 0.8798 0.3362
vn -0.6737 0.6737 0.3038
vn -0.3038 0.6737 0.6737
vn -0.0000 0.9348 0.3553
vn 0.3038 0.6737 0.6737
vn -0.0000 0.7071 0.7071
vn 0.5773 0.5773 0.5774
vn 0.3362 0.8798 0.3362
vn 0.6737 0.6737 0.3038
vn 0.3553 0.9348 0.0000
vn 0.6737 0.6737 -0.3038
vn 0.3362 0.8798 -0.3362
vn 0.5773 0.5773 -0.5774
vn 0.3038 0.6737 -0.6737
vn 0.0000 0.9348 -0.3553
vn -0.0000 0.7071 -0.7071
vn -0.3038 0.6737 -0.6737
vn -0.3362 0.8798 -0.3362
vn -0.5774 0.5773 -0.5773
vn -0.6737 0.6737 -0.3038
vn -0.3553 0.9348 -0.0000
vn -0.7071 0.7071 0.0000
vn -0.9273 0.1252 -0.3529
vn -0.9953 0.0971 0.0032
vn -0.9922 0.1246 -0.0000
vn -0.3362 0.3362 -0.8797
vn 0.0000 0.1246 -0.9922
vn -0.3528 0.1252 -0.9273
vn 0.7015 0.1254 0.7015
vn 0.9300 0.1069 0.3516
vn 0.9273 0.1252 0.3529
vn 0.3362 0.3362 -0.8797
vn 0.3528 0.1252 -0.9273
vn -0.6737 0.3038 -0.6737
vn -0.3529 0.1252 -0.9273
vn -0.7015 0.1254 -0.7015
vn -0.3362 0.3362 -0.8798
vn -0.0000 0.3553 -0.9348
vn 0.3362 0.3362 -0.8798
vn 0.5774 0.5773 -0.5773
vn 0.6737 0.3038 -0.6737
vn 0.3529 0.1252 -0.9273
vn 0.7015 0.1254 -0.7015
vn -0.3532 0.1082 -0.9293
vn -0.7032 0.1112 -0.7023
vn 0.8797 0.3362 -0.3362
vn 0.9922 0.1246 0.0000
vn 0.9273 0.1252 -0.3528
vn 0.3536 0.1118 0.9287
vn 0.7033 0.1135 0.7018
vn 0.8797 0.3362 0.3362
vn 0.9273 0.1252 0.3528
vn 0.9273 0.1252 -0.3529
vn 0.8798 0.3362 -0.3362
vn 0.9348 0.3553 -0.0000
vn 0.8798 0.3362 0.3362
vn 0.6737 0.3038 0.6737
vn 0.9946 0.1039 0.0002
vn 0.9288 0.1048 -0.3554
vn 0.3555 0.1061 -0.9286
vn -0.7015 0.1254 0.7015
vn -0.3530 0.1019 0.9300
vn -0.3529 0.1252 0.9273
vn -0.9305 0.0989 0.3526
vn -0.7033 0.1046 0.7032
vn 0.9288 0.1048 -0.3553
vn 0.7028 0.1050 -0.7036
vn -0.0012 0.1058 -0.9944
vn -0.0012 0.1057 -0.9944
vn -0.3533 0.1082 -0.9293
vn -0.8797 0.3362 0.3362
vn -0.9273 0.1252 0.3528
vn 0.3529 0.1252 0.9273
vn -0.0031 0.1046 0.9945
vn -0.8797 0.3362 -0.3362
vn -0.9273 0.1252 -0.3528
vn -0.6737 0.3038 0.6737
vn -0.9273 0.1252 0.3529
vn -0.5773 0.5773 0.5774
vn -0.8798 0.3362 0.3362
vn -0.9348 0.3553 0.0000
vn -0.8798 0.3362 -0.3362
vn -0.5773 0.5773 -0.5774
vn -0.0000 0.1246 0.9922
vn 0.3362 0.3362 0.8797
vn 0.3528 0.1252 0.9273
vn -0.9301 0.1055 -0.3519
vn -0.3362 0.3362 0.8797
vn -0.3528 0.1252 0.9273
vn 0.5774 0.5774 0.5773
vn 0.3362 0.3362 0.8798
vn 0.0000 0.3553 0.9348
vn -0.3362 0.3362 0.8798
vn -0.9953 0.0971 0.0031
vn -0.9509 0.1396 0.2761
vn -0.8617 0.1722 0.4773
vn 0.9597 0.1143 0.2567
vn 0.9388 0.1790 0.2942
vn -0.8828 0.1371 -0.4492
vn -0.8880 0.1900 -0.4188
vn -0.7154 0.1146 0.6892
vn -0.6481 0.1791 0.7402
vn -0.0837 0.1391 0.9867
vn 0.0157 0.1815 0.9833
vn 0.8938 0.1230 -0.4314
vn 0.8591 0.1722 -0.4820
vn 0.2792 0.1367 0.9505
vn 0.5058 0.1689 0.8460
vn -0.2663 0.1469 -0.9526
vn -0.4506 0.1755 -0.8753
vn 0.6963 0.1234 -0.7071
vn 0.6434 0.1794 -0.7442
vn 0.7580 0.1192 0.6413
vn 0.8210 0.1668 0.5460
vn 0.9300 0.1068 0.3516
vn 0.9905 0.1368 -0.0146
vn 0.9736 0.1694 -0.1528
vn -0.9301 0.1055 -0.3518
vn -0.9765 0.1522 -0.1525
vn -0.9832 0.1814 0.0207
vn 0.3555 0.1062 -0.9286
vn 0.0406 0.1344 -0.9901
vn 0.0138 0.1847 -0.9827
vn -0.3969 0.1213 0.9098
vn -0.3762 0.1861 0.9077
vn -0.6680 0.1298 -0.7328
vn -0.7160 0.1827 -0.6738
vn 0.4221 0.1263 -0.8977
vn 0.3430 0.1841 -0.9211
vn 0.7580 0.1128 0.6425
vn -0.0030 0.1047 0.9945
vn 0.9601 0.1093 0.2575
vn 0.9917 0.1278 -0.0134
vn 0.9388 0.1791 0.2942
vn 0.8953 0.1142 -0.4307
vn 0.6965 0.1220 -0.7071
vn 0.4212 0.1313 -0.8974
vn 0.6434 0.1793 -0.7442
vn 0.0409 0.1317 -0.9904
vn 0.3430 0.1840 -0.9211
vn -0.2660 0.1418 -0.9535
vn -0.6680 0.1297 -0.7328
vn -0.8827 0.1389 -0.4489
vn -0.9769 0.1493 -0.1529
vn -0.9514 0.1369 0.2759
vn -0.9832 0.1815 0.0207
vn -0.7148 0.1184 0.6893
vn -0.9953 0.0970 0.0031
vn -0.8617 0.1721 0.4774
vn -0.3961 0.1257 0.9096
vn -0.0839 0.1372 0.9870
vn -0.3762 0.1860 0.9077
vn 0.2790 0.1351 0.9507
vn 0.0157 0.1816 0.9833
vn 0.3553 0.9347 0.0000
vn 0.5774 0.5773 0.5773
vn 0.7071 0.7071 -0.0000
vn -0.0000 0.3553 -0.9347
vn -0.5773 0.5774 -0.5773
vn 0.5773 0.5774 -0.5773
vn 0.9347 0.3553 -0.0000
vn 0.5773 0.5774 0.5773
vn -0.9347 0.3553 0.0000
vn -0.5773 0.5774 0.5773
vn 0.0000 0.3553 0.9347
vn 0.9601 0.1093 0.2576
vn -0.3530 0.1019 0.9301
vn 0.8953 0.1141 -0.4307
vn 0.7580 0.1129 0.6425
vn 0.9917 0.1279 -0.0134
vn -0.9769 0.1494 -0.1529
vn -0.6679 0.1296 -0.7328
usemtl Material.001
s 1
f 1/1/1 2/2/2 3/3/3
f 4/4/4 2/2/2 5/5/5
f 2/2/2 6/6/6 3/3/3
f 2/2/2 7/7/7 8/8/8
f 9/9/9 1/10/10 10/11/11
f 11/12/12 5/5/13 1/1/1
f 12/13/14 5/5/13 13/14/15
f 14/15/16 4/4/17 12/13/14
f 15/16/18 16/17/19 4/4/4
f 16/17/19 17/18/20 7/7/7
f 7/7/21 18/19/22 19/20/23
f 8/8/24 19/20/23 20/21/25
f 8/8/24 21/22/26 6/6/6
f 6/6/27 22/23/28 23/24/29
f 3/3/30 23/24/29 24/25/31
f 10/26/11 3/3/30 24/25/31
f 25/27/32 26/28/33 27/29/34
f 28/30/35 29/31/36 30/32/37
f 31/33/38 32/34/39 33/35/40
f 29/31/36 34/36/41 35/37/42
f 36/38/43 30/32/44 37/39/45
f 22/40/28 28/30/46 36/38/43
f 21/41/26 38/42/47 28/30/35
f 38/42/47 19/43/23 34/36/41
f 34/36/48 18/44/49 39/45/50
f 35/37/51 39/45/50 40/46/52
f 37/39/45 41/47/53 42/48/54
f 43/49/55 44/50/56 45/51/57
f 31/52/38 46/53/58 47/54/59
f 44/50/56 48/55/60 33/35/61
f 39/56/50 45/51/62 40/57/52
f 18/58/22 43/49/63 39/56/50
f 17/59/20 49/60/64 43/49/55
f 49/60/64 15/61/18 48/55/60
f 48/55/65 14/62/16 50/63/66
f 33/35/40 50/63/66 31/33/38
f 45/51/62 51/64/67 52/65/68
f 40/46/52 53/66/69 35/37/51
f 54/67/70 55/68/71 56/69/72
f 54/70/70 57/71/73 58/72/74
f 40/57/52 52/65/75 59/73/76
f 35/37/51 60/74/77 29/31/36
f 30/32/44 60/74/78 41/47/79
f 61/75/80 27/29/34 62/76/81
f 63/77/82 64/78/83 46/53/58
f 27/29/34 65/79/84 25/27/85
f 66/80/86 62/76/87 54/70/70
f 9/9/88 61/75/89 66/80/86
f 10/11/11 67/81/90 61/75/80
f 67/81/90 23/82/29 65/79/84
f 65/79/91 22/83/92 36/84/43
f 25/27/32 36/84/43 37/85/45
f 62/76/87 26/28/33 57/71/73
f 56/69/72 64/78/83 68/86/93
f 33/35/40 51/64/67 44/50/56
f 69/87/94 68/86/93 63/77/95
f 37/85/45 70/88/96 25/27/32
f 68/86/93 71/89/97 56/69/98
f 50/90/66 63/77/82 31/52/38
f 14/91/99 69/87/100 50/90/66
f 12/92/14 72/93/101 69/87/94
f 72/93/101 11/94/12 71/89/97
f 71/89/102 9/95/9 66/96/86
f 56/69/72 66/96/86 54/67/70
f 26/28/103 73/97/104 74/98/105
f 47/54/59 75/99/106 76/100/107
f 42/48/54 77/101/108 78/102/109
f 57/71/73 79/103/110 80/104/111
f 55/68/71 81/105/112 82/106/113
f 51/64/67 83/107/114 84/108/115
f 64/78/83 85/109/116 86/110/117
f 60/74/78 87/111/118 88/112/119
f 52/65/68 89/113/120 90/114/121
f 46/53/58 91/115/122 92/116/123
f 32/34/124 93/117/125 94/118/126
f 70/88/127 95/119/128 96/120/129
f 53/66/130 97/121/131 98/122/132
f 58/72/74 99/123/133 100/124/134
f 41/47/53 101/125/135 102/126/136
f 59/73/76 103/127/137 104/128/138
f 91/129/139 64/130/140 86/131/117
f 75/132/141 46/133/58 92/134/123
f 93/135/142 47/136/59 76/137/143
f 83/138/144 32/139/39 94/140/126
f 89/141/145 51/142/67 84/143/115
f 103/144/146 52/145/75 90/146/147
f 97/121/148 59/147/76 104/148/149
f 87/149/150 53/150/130 98/151/132
f 101/152/151 60/153/78 88/154/119
f 77/155/152 41/156/53 102/157/136
f 95/119/153 42/158/54 78/159/109
f 73/160/154 70/161/96 96/162/155
f 79/163/156 26/164/157 74/165/158
f 99/166/159 57/167/73 80/168/111
f 81/105/160 58/169/74 100/170/161
f 85/171/162 55/172/71 82/173/163
f 1/1/1 5/5/5 2/2/2
f 4/4/4 16/17/164 2/2/2
f 2/2/2 8/8/8 6/6/6
f 2/2/2 16/17/164 7/7/7
f 9/95/88 11/94/12 1/174/10
f 11/12/12 13/14/15 5/5/13
f 12/13/14 4/4/4 5/5/13
f 14/15/165 15/16/18 4/4/17
f 15/16/18 105/175/166 16/17/19
f 16/17/19 105/175/166 17/18/20
f 7/7/21 17/18/20 18/19/49
f 8/8/24 7/7/7 19/20/23
f 8/8/24 20/21/25 21/22/26
f 6/6/27 21/22/26 22/23/92
f 3/3/30 6/6/6 23/24/29
f 10/26/11 1/1/1 3/3/30
f 25/27/32 70/88/96 26/28/33
f 28/30/35 38/42/167 29/31/36
f 31/33/38 47/176/59 32/34/39
f 29/31/36 38/42/167 34/36/41
f 36/38/43 28/30/35 30/32/44
f 22/40/168 21/41/26 28/30/46
f 21/41/26 20/177/25 38/42/47
f 38/42/47 20/177/25 19/43/23
f 34/36/48 19/43/23 18/44/169
f 35/37/51 34/36/41 39/45/50
f 37/39/45 30/32/44 41/47/53
f 43/49/55 49/60/170 44/50/56
f 31/52/38 63/77/82 46/53/58
f 44/50/56 49/60/170 48/55/60
f 39/56/50 43/49/55 45/51/62
f 18/58/169 17/59/20 43/49/63
f 17/59/20 105/178/166 49/60/64
f 49/60/64 105/178/166 15/61/18
f 48/55/65 15/61/18 14/62/171
f 33/35/40 48/55/60 50/63/66
f 45/51/62 44/50/56 51/64/67
f 40/46/52 59/147/76 53/66/69
f 54/67/70 58/169/74 55/68/71
f 54/70/70 62/76/87 57/71/73
f 40/57/52 45/51/62 52/65/75
f 35/37/51 53/66/130 60/74/77
f 30/32/44 29/31/36 60/74/78
f 61/75/80 67/81/172 27/29/34
f 63/77/82 68/86/93 64/78/83
f 27/29/34 67/81/172 65/79/84
f 66/80/86 61/75/80 62/76/87
f 9/9/173 10/11/11 61/75/89
f 10/11/11 24/179/31 67/81/90
f 67/81/90 24/179/31 23/82/29
f 65/79/91 23/82/29 22/83/168
f 25/27/32 65/79/84 36/84/43
f 62/76/87 27/29/34 26/28/33
f 56/69/72 55/68/71 64/78/83
f 33/35/40 32/34/39 51/64/67
f 69/87/94 72/93/174 68/86/93
f 37/85/45 42/158/54 70/88/96
f 68/86/93 72/93/174 71/89/97
f 50/90/66 69/87/94 63/77/82
f 14/91/171 12/92/14 69/87/100
f 12/92/14 13/180/15 72/93/101
f 72/93/101 13/180/15 11/94/12
f 71/89/102 11/94/12 9/95/173
f 56/69/72 71/89/97 66/96/86
f 26/28/33 70/88/96 73/97/154
f 47/54/59 46/53/58 75/99/175
f 42/48/54 41/47/53 77/101/152
f 57/71/73 26/28/33 79/103/156
f 55/68/176 58/169/74 81/105/160
f 51/64/67 32/34/39 83/107/177
f 64/78/83 55/68/71 85/109/162
f 60/74/77 53/66/130 87/111/150
f 52/65/68 51/64/67 89/113/145
f 46/53/58 64/78/83 91/115/178
f 32/34/39 47/176/59 93/117/179
f 70/88/96 42/158/54 95/119/180
f 53/66/130 59/147/76 97/121/148
f 58/72/74 57/71/73 99/123/159
f 41/47/53 60/74/77 101/125/181
f 59/73/76 52/65/68 103/127/146
